<?xml version="1.0" encoding="utf-8"?>
<!-- Generator: Adobe Illustrator 16.0.0, SVG Export Plug-In . SVG Version: 6.00 Build 0)  -->
<!DOCTYPE svg PUBLIC "-//W3C//DTD SVG 1.1//EN" "http://www.w3.org/Graphics/SVG/1.1/DTD/svg11.dtd">
<svg version="1.1" id="Layer_5" xmlns="http://www.w3.org/2000/svg" xmlns:xlink="http://www.w3.org/1999/xlink" x="0px" y="0px"
	 width="500px" height="500px" viewBox="0 0 500 500" enable-background="new 0 0 500 500" xml:space="preserve">
<path fill-rule="evenodd" clip-rule="evenodd" fill="#DE6B1B" d="M106.806,303.919c2.021-3.211,4.313-6.225,6.69-9.176
	c1.108-0.708,2.323-0.163,3.482-0.283c0.737-0.076,1.23,0.377,1.34,1.076c0.229,1.465,1.103,2.604,1.822,3.822
	c1.252,3.991,2.463,7.998,3.954,11.911c0.364,0.954,0.559,1.995,1.46,2.647c2.911,0.525,5.627-0.631,8.438-0.955
	c14.496-2.035,28.94-4.398,43.407-6.615c20.159-3.09,40.354-5.955,60.479-9.265c0.553-0.091,1.112-0.134,1.673-0.133
	c0.969,0.073,1.929-0.002,2.881-0.197c10.042,1.152,20.081,2.35,30.078,3.831c7.091,1.052,14.25,1.519,21.321,2.691
	c0.271,0.035,0.535,0.099,0.797,0.174c1.302,0.444,2.643,0.233,3.973,0.221c6.927,0.553,13.787,1.631,20.662,2.587
	c1.027,0.143,2.059,0.265,3.086,0.407c5.432,0.688,10.862,1.378,16.316,1.87c7.34,1.097,14.693,2.085,22.079,2.819
	c7.787,1.377,15.681,1.941,23.503,3.054c7.08,1.093,14.231,1.617,21.315,2.683c3.622,0.545,7.249,1.032,10.934,1.071
	c1.314,0.014,3.003,0.014,3.255,2.015c-12.167,1.728-24.331,3.472-36.501,5.18c-13.128,1.842-26.262,3.646-39.392,5.477
	c-14.475,2.019-28.945,4.064-43.423,6.069c-13.21,1.829-26.45,3.467-39.629,5.502c-5.286,0.816-10.337,0.034-15.461-0.758
	c-11.049-1.709-22.096-3.422-33.142-5.141c-11.836-1.841-23.67-3.693-35.506-5.535c-10.81-1.682-21.624-3.336-32.431-5.038
	c-9.619-1.515-19.223-3.128-28.85-4.596c-4.476-0.684-8.964-1.271-13.408-2.147c-0.394-1.551,0.869-1.424,1.687-1.537
	c3.895-0.54,7.764-1.26,11.678-1.62c1.121-0.351,2.399-0.009,3.449-0.724c0.042-0.859-0.669-1.064-1.157-1.403
	c-3.217-2.231-6.322-4.609-9.325-7.117C107.491,306.076,106.226,305.453,106.806,303.919z"/>
<path fill-rule="evenodd" clip-rule="evenodd" fill="#D67A18" d="M294.494,303.882c-2.314,0.038-4.575-0.444-6.841-0.796
	c-1.727-0.269-3.482-0.388-5.198-0.542c-5.852-0.523-11.601-1.7-17.416-2.399c-3.223-0.388-6.467-0.65-9.688-1.073
	c-2.826-0.371-5.651-0.761-8.46-1.244c-1.563-0.269-3.195-0.016-4.702-0.651c-0.049-0.094-0.098-0.187-0.146-0.28
	c0.014-0.799,0.423-1.39,0.997-1.894c0.412-0.302,0.847-0.572,1.265-0.868c0.166-0.119,0.341-0.226,0.517-0.329
	c0.26-0.175,0.512-0.359,0.753-0.562c2.912-2.266,5.885-4.447,8.82-6.677c8.027-5.813,16.049-11.633,23.958-17.604
	c4.455-3.153,8.874-6.355,13.202-9.679c0.331-0.252,0.702-0.444,1.055-0.665c0.159-0.125,0.323-0.244,0.482-0.37
	c0.151-0.144,0.31-0.277,0.469-0.414c0.082-0.071,0.166-0.136,0.248-0.206c2.556-1.597,4.85-3.548,7.273-5.313
	c0.162-0.118,0.335-0.225,0.505-0.33c0.077-0.056,0.161-0.107,0.238-0.164c0.143-0.118,0.293-0.231,0.438-0.348
	c0.066-0.061,0.14-0.118,0.206-0.178c0.131-0.121,0.273-0.229,0.419-0.33c0.142-0.097,0.293-0.18,0.446-0.255
	c0.143-0.084,0.289-0.165,0.432-0.25c0.063-0.051,0.133-0.097,0.196-0.148c0.119-0.113,0.244-0.221,0.365-0.333
	c0.058-0.061,0.118-0.116,0.176-0.176c0.113-0.126,0.233-0.243,0.354-0.361c0.06-0.062,0.123-0.118,0.185-0.179
	c0.126-0.12,0.265-0.224,0.409-0.322c0.146-0.099,0.3-0.186,0.454-0.273c0.148-0.106,0.299-0.207,0.446-0.316
	c0.073-0.062,0.147-0.117,0.221-0.179c0.15-0.129,0.308-0.243,0.472-0.356c0.168-0.126,0.341-0.237,0.517-0.35
	c3.64-2.522,7.178-5.178,10.711-7.841c6.018-4.168,11.813-8.64,17.729-12.947c3.738-2.865,7.57-5.603,11.364-8.393
	c0.889-0.654,1.783-1.502,2.924-0.394c1.961,2.261,3.731,4.658,5.158,7.296c-0.184,1.954-1.663,3.173-2.697,4.62
	c-1.853,2.592-3.923,5.022-6.016,7.423c-1.956,2.244-3.301,4.874-4.885,7.355c-5.356,6.358-10.544,12.85-15.387,19.612
	c-5.617,7.033-10.887,14.329-16.273,21.536c-1.848,2.052-3.397,4.337-5.073,6.52c-0.12,0.162-0.256,0.314-0.394,0.46
	c-0.063,0.072-0.134,0.142-0.196,0.214c-0.182,0.213-0.354,0.436-0.505,0.674c-0.091,0.161-0.196,0.312-0.307,0.46
	c-0.105,0.153-0.219,0.301-0.329,0.451c-0.049,0.082-0.103,0.159-0.151,0.242c-0.089,0.176-0.188,0.343-0.288,0.515
	c-0.104,0.184-0.223,0.352-0.354,0.517c-1.54,1.738-2.862,3.642-4.232,5.505C297.367,302.64,296.167,303.591,294.494,303.882z"/>
<path fill-rule="evenodd" clip-rule="evenodd" fill="#FBA128" d="M133.742,313.511c-0.883,0.877-2.087,0.338-3.117,0.702
	c-1.151,0.407-2.42,0.513-3.647,0.67c-0.673,0.087-1.417,0.233-1.953-0.426c1.251-3.411,0.777-6.943,0.57-10.417
	c-0.138-2.306-0.42-4.609-0.303-6.917c0.255-5.031-0.507-10.022-0.501-15.042c0.001-1.288,0.047-2.554,0.72-3.705
	c-0.013-0.705,0.469-1.157,0.844-1.667c7.368-10.017,14.698-20.061,21.937-30.172c6.487-9.063,13.115-18.025,19.69-27.025
	c0.182-0.249,0.466-0.423,0.702-0.633c2.454-0.425,4.948-0.373,7.391-0.175c5.483,0.444,10.982,0.283,16.465,0.623
	c2.481,0.692,5.021,0.241,7.531,0.366c0.863,0.043,1.737-0.056,2.582,0.193c1.653,0.919,0.684,1.894-0.063,2.671
	c-3.123,3.25-5.415,7.128-8.185,10.643c-0.604,0.767-0.964,1.653-1.369,2.521c-4.376,4.043-7.868,8.784-10.902,13.883
	c-1.401,2.354-3.033,4.498-5.302,6.108c-0.979,0.695-1.841,1.555-2.529,2.54c-2.748,3.931-5.609,7.762-8.841,11.322
	c-4.209,4.638-7.32,10.074-10.811,15.232c-7.593,8.133-14.005,17.236-21.149,25.738C132.569,311.653,132.43,312.622,133.742,313.511
	z"/>
<path fill-rule="evenodd" clip-rule="evenodd" fill="#FDB321" d="M213.806,156.898c1.353-2.822,3.477-5.12,5.273-7.633
	c6.112-8.55,12.339-17.02,18.526-25.517c5.952-8.175,11.908-16.348,17.866-24.519c1.407-1.93,2.845-3.838,4.237-5.778
	c0.432-0.6,0.812-1.199,1.673-1.126c0.8,3.31,0.354,6.67,0.086,9.959c-0.382,4.699-0.332,9.409-0.734,14.107
	c-0.818,9.541-1.17,19.116-1.815,28.671c-0.451,6.687-0.708,13.39-1.126,20.082c-0.219,3.503-0.451,7.006-0.684,10.507
	c-0.068,0.275-0.177,0.539-0.311,0.789c-1.426,3.415-2.455,4.305-5.387,2.819c-7.646-3.875-16.246-3.991-24.168-6.679
	c-2.416-0.819-4.896-1.37-7.475-1.6c-2.495-0.222-4.578-1.799-6.852-2.75c-1.081-0.452-1.198-1.604-0.892-2.708
	c1.141-1.267,2.499-2.324,3.514-3.73c0.941-1.305,1.231-2.332-0.547-3.158C214.331,158.328,213.504,157.948,213.806,156.898z"/>
<path fill-rule="evenodd" clip-rule="evenodd" fill="#F08512" d="M256.562,176.175c-0.296-4.556,0.388-9.078,0.616-13.61
	c0.136-2.697,0.136-5.414,0.395-8.1c0.511-5.311,0.465-10.659,1.025-15.949c0.32-3.035,0.211-6.049,0.402-9.065
	c0.176-2.77,0.527-5.528,0.803-8.292c0.032-0.317,0.124-0.635,0.107-0.949c-0.244-4.713,0.422-9.396,0.618-14.089
	c0.192-4.592,0.05-9.233,0.854-13.797c0.356-0.109,0.608,0.042,0.799,0.329c8.427,12.646,16.976,25.207,25.808,37.574
	c3.423,4.792,6.846,9.585,10.26,14.383c0.413,0.58,0.9,1.126,1.04,1.862c2.026,3.524,4.523,6.734,6.797,10.093
	c0.568,0.84,1.131,1.563,0.458,2.574c-3.438,1.894-7.215,2.965-10.851,4.36c-12.062,4.629-24.198,9.064-36.329,13.508
	c-0.598,0.219-1.184,0.535-1.835,0.494C256.719,177.451,256.056,177.219,256.562,176.175z"/>
<path fill-rule="evenodd" clip-rule="evenodd" fill="#E8A42A" d="M309.837,285.631c0.698-2.003,2.275-3.416,3.478-5.069
	c3.601-4.949,7.324-9.81,10.989-14.713c0.53-0.709,1.078-1.383,1.874-1.809c9.051-1.135,17.896-3.178,26.582-5.948
	c3.52-1.124,7.159-1.727,10.841-1.875c1.828-0.074,3.393-0.538,4.956-1.479c2.12-1.275,4.361-2.437,6.969-1.258
	c3.964,4.623,7.274,9.72,10.688,14.741c0.216,0.316,0.28,0.735,0.416,1.105c-1.006,0.927-2.271,0.714-3.427,0.644
	c-4.703-0.288-8.917,0.708-12.884,3.494c-2.909,2.044-6.636,2.19-10.12,2.62c-6.187,0.765-12.195,2.565-18.421,3.087
	c-0.637,0.054-1.284,0.197-1.838,0.515c-3.484,1.991-7.339,2.596-11.232,3.127c-5.315,0.724-10.479,2.173-15.682,3.431
	C311.918,286.512,310.654,287.091,309.837,285.631z"/>
<path fill-rule="evenodd" clip-rule="evenodd" fill="#EB991C" d="M338.665,201.621c2.62,3.203,5.068,6.528,7.201,10.08
	c0.613,0.943,0.292,1.756-0.545,2.252c-1.801,1.068-3.774,2.114-5.874,1.407c-3.112-1.047-5.727,0.142-8.126,1.642
	c-2.57,1.607-4.966,2.427-7.811,0.908c-0.853-0.456-1.957-0.771-2.698,0.039c-2.357,2.58-5.725,2.992-8.72,3.549
	c-6.908,1.285-13.387,4.102-20.339,5.185c-3.717,0.579-7.394,1.288-11.162,1.027c-2.244-0.155-3.805,0.658-4.95,2.601
	c-0.62,1.052-1.106,2.365-2.575,2.645c-0.517-0.292-0.547-0.792-0.368-1.233c1.919-4.75,4.022-9.411,6.716-13.786
	c1.31-0.722,2.142-1.774,2.71-3.195c0.807-2.018,1.722-2.257,3.126-0.747c1.28,1.377,2.592,1.417,4.09,0.747
	c4.873-2.18,10.073-2.958,15.295-3.701c4.357-0.62,8.566-1.89,12.751-3.207c5.036-1.585,10.132-2.865,15.423-3.136
	C335.28,204.572,337.235,203.642,338.665,201.621z"/>
<path fill-rule="evenodd" clip-rule="evenodd" fill="#F08512" d="M259.539,365.395c3.758,0,7.517-0.014,11.275,0.006
	c2.349,0.012,2.484,0.159,2.51,2.4c0.011,0.959,0.028,1.92-0.008,2.878c-0.058,1.505-0.315,1.791-1.864,1.829
	c-2.078,0.05-4.157,0.014-6.236,0.014c-4.958,0.001-9.916-0.001-14.873,0.002c-0.64,0-1.286-0.037-1.917,0.041
	c-1.332,0.166-1.947,0.853-1.893,2.006c0.057,1.199,0.647,1.808,2.011,1.846c2.397,0.067,4.797,0.073,7.195,0.067
	c3.118-0.009,6.235-0.047,9.354-0.086c1.956-0.025,3.809,0.331,5.514,1.342c3.776,2.241,4.733,6.977,3.603,11.021
	c-1.047,3.746-4.464,6.207-8.515,6.082c-7.274-0.224-14.55-0.049-21.824-0.105c-3.04-0.024-2.791,0.069-2.993-2.9
	c-0.038-0.559-0.104-1.118-0.09-1.676c0.05-1.921,0.729-2.49,2.693-2.479c7.185,0.038,14.37,0.066,21.555,0.054
	c2.026-0.004,2.653-0.646,2.573-2.282c-0.056-1.142-0.602-1.793-1.757-1.856c-0.718-0.04-1.438-0.033-2.158-0.033
	c-5.117-0.006-10.235,0-15.353-0.014c-2.698-0.007-5.05-0.891-6.763-3.031c-2.51-3.135-2.573-6.707-1.116-10.19
	c1.43-3.416,4.288-4.996,8.043-4.944C252.182,365.435,255.861,365.395,259.539,365.395z"/>
<path fill-rule="evenodd" clip-rule="evenodd" fill="#EE9D1E" d="M272.898,232.84c1.351-0.957,1.949-2.492,2.818-3.798
	c0.936-1.406,2.023-2.129,3.756-1.976c5.388,0.475,10.586-0.79,15.829-1.738c2.065-0.374,4.047-0.711,5.813-1.945
	c0.554-0.387,1.348-0.462,2.047-0.605c3.804-0.777,7.716-1.096,11.313-2.742c0.414-0.189,0.949-0.094,1.411-0.202
	c1.551-0.363,3.106-0.709,4.105-2.156c0.817-1.183,1.892-1.323,3.133-0.667c0.421,0.223,0.911,0.321,1.317,0.563
	c2.296,1.37,4.166,0.334,6.15-0.862c2.747-1.656,5.479-3.323,9.031-1.944c2.069,0.803,3.984-0.554,5.79-1.524
	c0.545-0.293,0.426-0.987,0.451-1.542c1.716,1.892,3.204,3.945,4.424,6.19c-1.061-0.402-1.759,0.205-2.551,0.793
	c-3.806,2.827-7.652,5.598-11.483,8.389c-2.321-1.084-4.655-0.666-7.035-0.173c-16.592,3.436-32.99,7.7-49.489,11.532
	c-2.19,0.509-4.372,1.133-6.618,0.643c-2.183-0.478-2.354,1.88-3.754,2.459c-0.572-0.171-0.778-0.683-0.609-1.118
	C269.797,237.712,270.614,234.87,272.898,232.84z"/>
<path fill-rule="evenodd" clip-rule="evenodd" fill="#F08512" d="M406.689,394.738c-4.475,0-8.949,0.006-13.425-0.003
	c-2.151-0.004-2.313-0.139-2.316-2.314c-0.017-8.23-0.017-16.461,0.001-24.691c0.004-2.131,0.193-2.323,2.34-2.327
	c8.95-0.018,17.899-0.018,26.85,0.001c2.017,0.004,2.016,0.05,2.241,2.171c0.068,0.636,0.179,1.269,0.209,1.905
	c0.118,2.492-0.56,3.187-3.008,3.163c-4.793-0.046-9.587-0.085-14.38-0.119c-1.838-0.013-3.677-0.026-5.514,0.002
	c-1.387,0.022-1.873,0.598-1.882,2.101c-0.007,1.307,0.477,1.813,1.876,1.816c5.913,0.011,11.827-0.003,17.74-0.008
	c0.56,0,1.119,0.02,1.678,0c1.06-0.036,1.637,0.362,1.643,1.52c0.031,5.989,0.28,5.621-5.076,5.61
	c-5.194-0.012-10.389-0.011-15.583,0.004c-0.678,0.002-1.495-0.299-1.922,0.547c-0.499,0.989-0.476,2.011-0.008,3.008
	c0.344,0.733,1.058,0.625,1.676,0.628c3.676,0.022,7.352,0.021,11.026,0.028c3.196,0.008,6.393-0.009,9.588,0.036
	c1.632,0.023,1.711,0.139,1.765,1.819c0.033,1.038,0.026,2.078,0.002,3.116c-0.044,1.919-0.063,1.96-2.095,1.973
	c-3.916,0.024-7.832,0.008-11.747,0.008c-0.56,0-1.119,0-1.679,0C406.689,394.733,406.689,394.735,406.689,394.738z"/>
<path fill-rule="evenodd" clip-rule="evenodd" fill="#F08512" d="M220.986,394.731c-4.48-0.001-8.96,0.013-13.439-0.007
	c-1.841-0.008-1.878-0.039-1.881-1.835c-0.015-8.56-0.016-17.118,0.001-25.678c0.003-1.776,0.046-1.809,1.923-1.812
	c9.04-0.012,18.08-0.016,27.119,0.003c2.033,0.004,2.113,0.127,2.148,2.212c0.016,0.96,0.025,1.921-0.004,2.88
	c-0.055,1.792-0.192,1.932-1.893,2.02c-0.559,0.028-1.12,0.007-1.68,0.007c-6.24,0.001-12.479-0.012-18.72,0.009
	c-1.988,0.006-2.147,0.19-2.162,1.962c-0.016,1.795,0.064,1.927,1.856,1.934c6,0.022,12,0.009,18,0.01c0.56,0,1.12,0.004,1.68,0.012
	c0.881,0.012,1.336,0.503,1.36,1.342c0.038,1.358,0.022,2.719,0.021,4.079c-0.002,1.2-0.627,1.718-1.811,1.697
	c-1.6-0.027-3.199-0.004-4.8-0.004c-4.64,0.001-9.279-0.013-13.919,0.006c-2.252,0.009-2.512,0.302-2.405,2.469
	c0.072,1.469,0.31,1.753,1.905,1.789c2.399,0.053,4.8,0.016,7.2,0.016c4.399,0,8.8-0.019,13.199,0.009
	c1.941,0.013,2.07,0.164,2.136,2.021c0.034,0.959,0.03,1.92,0.012,2.88c-0.034,1.722-0.204,1.94-1.928,1.966
	c-2.96,0.044-5.92,0.014-8.88,0.015C224.346,394.731,222.666,394.731,220.986,394.731z"/>
<path fill-rule="evenodd" clip-rule="evenodd" fill="#E4A229" d="M309.837,285.631c0.729,0.436,1.419,0.371,2.263,0.17
	c4.628-1.102,9.195-2.475,13.906-3.221c2.343-0.372,4.667-1.037,7.018-1.128c2.044-0.08,3.76-0.949,5.36-1.83
	c1.985-1.094,4.106-1.454,6.16-1.557c3.38-0.17,6.538-1.258,9.826-1.742c2.661-0.391,5.32-0.795,7.971-1.25
	c3.273-0.562,6.52-1.03,9.315-3.219c2.276-1.781,5.061-2.589,8.029-2.541c2.313,0.036,4.629,0.012,6.943,0.014
	c0.471,0.339,0.92,0.694,1.042,1.311c0.575,1.33-0.516,1.7-1.315,2.108c-4.817,2.462-9.496,5.184-14.314,7.638
	c-2.976,1.516-5.876,3.163-8.819,4.737c-1.714,0.765-3.208,1.946-4.964,2.624c-1.008,0.39-2.015,0.94-3.124,0.274
	c-1.175-1.014-2.5-1.162-4.021-0.99c-8.738,0.986-17.296,2.84-25.738,5.248c-5.214,1.488-10.561,2.413-15.802,3.802
	c-2.182,0.578-4.865,1.303-6.934-0.848c0.006-0.159,0.018-0.317,0.035-0.476c0.152-0.157,0.308-0.312,0.466-0.464l0.011-0.011
	c0.153-0.162,0.314-0.318,0.467-0.482l-0.001,0.001c0.295-0.255,0.21-0.697,0.479-0.965l-0.001,0.003
	c0.177-0.148,0.322-0.328,0.478-0.497C306.127,289.947,307.594,287.484,309.837,285.631z"/>
<path fill-rule="evenodd" clip-rule="evenodd" fill="#F08512" d="M183.731,394.348c-3.966-5.618-7.758-10.991-11.545-16.357
	c-0.88,0.497-0.59,1.121-0.593,1.619c-0.024,4.395,0.003,8.789-0.022,13.184c-0.011,1.839-0.079,1.94-1.887,1.923
	c-5.831-0.058-4.865,0.888-4.905-4.633c-0.051-7.11-0.013-14.223-0.013-21.334c0-0.399-0.005-0.8,0.001-1.199
	c0.034-2.152,0.035-2.152,2.085-2.132c0.479,0.005,0.973,0.097,1.436,0.014c2.622-0.472,4.292,0.594,5.73,2.825
	c2.725,4.227,5.728,8.273,8.643,12.376c1.009,1.421,1.133,1.419,2.173-0.037c3.108-4.356,6.248-8.693,9.247-13.125
	c1.075-1.59,2.342-2.293,4.204-2.072c0.553,0.065,1.117,0.048,1.676,0.046c2.771-0.007,2.779-0.009,2.781,2.646
	c0.004,8.15,0.006,16.3-0.002,24.45c-0.002,2.107-0.023,2.184-2.062,2.111c-1.481-0.053-3.355,0.715-4.341-0.395
	c-0.856-0.965-0.25-2.757-0.269-4.181c-0.044-3.436-0.021-6.872-0.063-10.307c-0.008-0.588,0.286-1.284-0.608-1.932
	C191.56,383.271,187.729,388.691,183.731,394.348z"/>
<path fill-rule="evenodd" clip-rule="evenodd" fill="#F08512" d="M110.015,394.686c-3.518,0-7.037,0.084-10.552-0.021
	c-4.929-0.146-8.42-3.608-8.582-8.519c-0.131-3.994-0.162-7.995-0.097-11.991c0.081-4.891,4.23-8.675,9.597-8.741
	c6.078-0.075,12.158-0.02,18.238-0.02c0.96,0,1.92-0.001,2.88,0.01c1.055,0.013,1.639,0.489,1.612,1.611
	c-0.026,1.12,0.009,2.24-0.017,3.359c-0.044,1.978-0.173,2.132-2.255,2.139c-6.239,0.021-12.479,0.005-18.719,0.013
	c-0.799,0.001-1.61-0.022-2.393,0.107c-1.42,0.236-1.979,0.78-2.008,2.246c-0.07,3.518-0.076,7.039,0.007,10.556
	c0.035,1.492,0.532,1.882,2.071,2.138c1.827,0.303,3.672,0.153,5.51,0.173c2.879,0.03,5.759,0.045,8.638,0.049
	c0.79,0.002,1.732,0.113,2.035-0.851c0.286-0.91,0.336-1.903-0.094-2.812c-0.287-0.605-0.908-0.567-1.467-0.569
	c-1.84-0.007-3.681,0.027-5.52-0.012c-1.917-0.04-2.04-0.172-2.103-2.052c-0.037-1.118,0.027-2.24-0.015-3.358
	c-0.047-1.247,0.565-1.714,1.745-1.71c4.32,0.017,8.64,0.01,12.959,0.008c1.071,0,1.616,0.481,1.613,1.599
	c-0.014,5.039-0.027,10.079,0.01,15.118c0.01,1.34-0.705,1.59-1.823,1.583c-3.758-0.024-7.516-0.01-11.272-0.01
	C110.015,394.715,110.015,394.7,110.015,394.686z"/>
<path fill-rule="evenodd" clip-rule="evenodd" fill="#F08512" d="M334.836,365.396c2.958,0,5.916-0.025,8.873,0.005
	c5.999,0.062,9.33,3.417,9.346,9.412c0.016,5.915,0.012,11.831-0.001,17.747c-0.005,2.128-0.029,2.127-2.109,2.171
	c-4.672,0.099-4.672,0.099-4.682-4.638c-0.002-0.879,0.019-1.759-0.015-2.637c-0.065-1.724-0.242-1.945-1.955-1.961
	c-3.917-0.036-7.834-0.013-11.751-0.014c-0.88,0-1.761,0.037-2.638-0.015c-1.529-0.09-1.694-0.281-1.793-1.906
	c-0.053-0.877-0.09-1.756-0.104-2.635c-0.034-2.187,0.475-2.685,2.661-2.665c3.995,0.034,7.991,0.063,11.986,0.094
	c0.16,0.001,0.323,0.021,0.479-0.003c0.974-0.151,2.271,0.513,2.84-0.657c0.604-1.242,0.449-2.668,0.014-3.975
	c-0.373-1.12-1.409-1.178-2.389-1.185c-2.318-0.018-4.637-0.012-6.955-0.013c-3.117-0.002-6.235-0.01-9.353,0.002
	c-2.988,0.012-3.218,0.232-3.229,3.317c-0.02,5.036-0.003,10.072-0.007,15.109c-0.003,3.781-0.007,3.786-3.734,3.778
	c-3.587-0.007-3.271,0.279-3.291-3.188c-0.029-5.516-0.039-11.031,0.022-16.546c0.025-2.328,0.356-4.58,1.973-6.501
	c1.717-2.042,3.817-3.091,6.459-3.097C328.602,365.39,331.719,365.396,334.836,365.396z"/>
<path fill-rule="evenodd" clip-rule="evenodd" fill="#F08512" d="M125.888,383.157c0.002-3.038,0.096-6.079-0.021-9.113
	c-0.165-4.301,3.492-8.871,8.833-8.692c5.749,0.192,11.52,0.255,17.262-0.021c5.37-0.257,9.771,2.894,9.952,9.448
	c0.139,5.032,0.039,10.071,0.041,15.107c0.001,1.119-0.007,2.238-0.026,3.357c-0.016,0.952-0.465,1.494-1.469,1.475
	c-0.079-0.002-0.159,0.003-0.239,0.009c-5.32,0.41-5.319,0.41-5.366-4.949c-0.007-0.8-0.006-1.6-0.04-2.398
	c-0.075-1.757-0.157-1.875-1.977-1.888c-4.237-0.03-8.475-0.01-12.712-0.011c-0.56-0.001-1.119-0.012-1.679-0.016
	c-0.975-0.008-1.471-0.479-1.459-1.474c0.011-0.96,0-1.919-0.007-2.878c-0.018-2.726,0-2.751,2.832-2.758
	c3.197-0.008,6.395-0.001,9.592-0.002c1.279,0,2.56-0.04,3.837,0.01c1.104,0.043,1.672-0.364,1.574-1.518
	c-0.007-0.079-0.002-0.16,0.001-0.239c0.173-3.829-0.068-4.084-3.896-4.085c-4.877-0.002-9.754-0.004-14.631,0.001
	c-3.507,0.003-3.58,0.072-3.587,3.687c-0.01,5.437,0.007,10.873-0.007,16.31c-0.006,2.161-0.031,2.223-2.096,2.199
	c-5.646-0.064-4.605,0.805-4.706-4.605C125.852,387.795,125.887,385.476,125.888,383.157z"/>
<path fill-rule="evenodd" clip-rule="evenodd" fill="#ECA829" d="M375.525,253.48c-2.662,0.095-5.211,0.54-7.374,2.275
	c-1.025,0.822-2.18,1.12-3.536,1.118c-4.154-0.006-8.243,0.683-12.161,2.019c-5.057,1.725-10.192,3.014-15.478,3.782
	c-1.153,0.168-2.296,0.58-3.426,0.98c-2.389,0.847-4.855,1.46-7.373,0.385c0.009-0.959,0.692-1.612,1.2-2.268
	c4.204-5.423,8.466-10.802,12.727-16.182c0.39-0.491,0.833-0.961,1.438-1.22c1.581,1.223,3.29,1.335,5.182,0.789
	c2.065-0.597,4.196-0.872,6.352-1.056c3.334-0.285,6.607-0.905,9.815-1.955c1.478-0.483,3.203-1.399,4.653,0.269
	C370.694,245.751,373.229,249.531,375.525,253.48z"/>
<path fill-rule="evenodd" clip-rule="evenodd" fill="#F6BA29" d="M360.734,312.022c-2.003,0.229-3.936-0.379-5.898-0.567
	c-4.477-0.431-8.918-1.211-13.384-1.765c-0.952-0.118-1.861-0.363-2.794-0.534c-0.6-1.163,0.292-1.587,1.054-1.991
	c0.921-0.49,1.93-0.796,2.957-0.962c9.094-1.472,17.934-4.043,26.879-6.159c6.459-1.528,13.043-2.477,19.521-3.927
	c4.681-1.048,9.21-2.565,13.474-4.804c2.352,2.338,3.921,5.18,5.266,8.166c0.472,2.551-0.838,4.358-3.564,4.285
	c-3.4-0.091-6.458,0.921-9.487,2.189c-2.005,0.839-4.055,1.471-6.214,1.715c-6.689,0.754-13.225,2.263-19.718,3.985
	c-2.123,0.563-4.232,0.897-6.247-0.384C361.623,310.663,361.11,311.187,360.734,312.022z"/>
<path fill-rule="evenodd" clip-rule="evenodd" fill="#E9931A" d="M338.665,201.621c-0.504,2.186-1.654,3.293-4.115,3.454
	c-4.737,0.31-9.459,1.052-14.016,2.419c-3.716,1.116-7.405,2.313-11.168,3.275c-3.46,0.885-7.003,1.316-10.52,1.843
	c-2.547,0.382-4.947,1.108-7.322,2.025c-0.815,0.315-1.654,0.571-2.461,0.908c-1.722,0.72-3.094,0.758-4.236-1.154
	c-0.866-1.448-1.791-1.258-2.12,0.451c-0.366,1.906-1.479,2.898-3.089,3.597c-0.472-0.499-0.288-1.045-0.066-1.555
	c1.862-4.299,3.641-8.648,5.949-12.728c1.244-2.199,3.775-3.066,5.651-4.626c2.74,0.802,2.785,1.245,0.309,4.438
	c1.199,0.677,2.336-0.02,3.441-0.047c1.358-0.034,2.672-0.47,4.037-0.511c1.007-0.03,1.563-0.506,2.229-1.395
	c1.72-2.292,4.6-2.623,7.161-3.346c1.854-0.523,3.818-0.933,4.866,1.543c0.346,0.816,1.139,0.461,1.632,0.054
	c1.269-1.048,2.739-1.25,4.285-1.15c1.666,0.107,2.908-0.507,3.885-1.876c0.941-1.32,2.208-1.955,3.935-1.696
	c3.299,0.494,3.308,0.443,4.47-2.695c0.113-0.304,0.27-0.576,0.528-0.78C334.359,195.124,336.791,198.175,338.665,201.621z"/>
<path fill-rule="evenodd" clip-rule="evenodd" fill="#EFB026" d="M355.459,288.041c2.018-0.433,3.844-1.306,5.554-2.435
	c0.658-0.435,1.307-0.869,2.124-0.928c2.863-1.174,5.612,0.382,8.439,0.415c2.481,0.029,4.536-0.296,6.187-2.266
	c0.779-0.929,1.788-1.594,3.074-1.638c3.563-0.122,7.146,0.133,10.646-0.916c1.048-0.313,2.202,0.198,3.317,0.155
	c1.371,1.4,2.58,2.916,3.38,4.725c0.453,2.186-0.966,3.237-2.577,4.074c-1.42,0.737-2.969,1.227-4.521,1.569
	c-7.874,1.742-15.614,3.998-23.55,5.543c-9.388,1.828-18.977,2.906-28,6.387c-2.284,0.882-4.532,0.998-6.492-0.844
	c-0.688-1.608,0.647-2.094,1.6-2.63c4.894-2.754,9.747-5.584,14.775-8.087c0.276-0.13,0.562-0.244,0.84-0.366
	c0.163-0.083,0.336-0.155,0.507-0.223c0.234-0.107,0.474-0.211,0.705-0.327c0.142-0.079,0.29-0.148,0.437-0.217
	c0.136-0.079,0.273-0.157,0.405-0.243c-0.004-0.005,0.188-0.142,0.184-0.146c0.109-0.112,0.226-0.218,0.34-0.325
	c-0.004-0.004,0.173-0.159,0.169-0.163c0.109-0.114,0.233-0.211,0.365-0.296c0.128-0.089,0.267-0.158,0.411-0.214
	c0.204-0.098,0.409-0.197,0.609-0.304c0.131-0.076,0.271-0.134,0.414-0.179c0.139-0.062,0.284-0.1,0.434-0.123
	C355.233,288.04,355.459,288.041,355.459,288.041z"/>
<path fill-rule="evenodd" clip-rule="evenodd" fill="#F08512" d="M375.138,394.73c-3.198-0.001-6.397,0.044-9.595-0.011
	c-5.946-0.102-9.492-3.642-9.612-9.619c-0.068-3.357-0.07-6.718,0.002-10.074c0.126-5.854,3.755-9.471,9.708-9.609
	c4.235-0.099,8.475-0.021,12.713-0.022c2.559,0,5.117-0.022,7.676,0.009c2.027,0.024,2.174,0.19,2.324,2.153
	c0.373,4.901,0.314,4.965-4.55,4.965c-5.518,0-11.034-0.003-16.552,0.004c-0.798,0.001-1.604,0.001-2.394,0.097
	c-1.078,0.13-1.763,0.742-1.814,1.878c-0.172,3.755-0.194,7.51,0.016,11.264c0.057,1.017,0.64,1.557,1.625,1.787
	c1.027,0.241,2.066,0.237,3.101,0.24c5.996,0.021,11.994,0.009,17.99,0.011c2.486,0.001,2.581,0.052,2.589,2.521
	c0.016,5.274-0.597,4.349-4.351,4.4C381.056,394.764,378.097,394.731,375.138,394.73z"/>
<path fill-rule="evenodd" clip-rule="evenodd" fill="#D77A24" d="M192.729,219.889c-3.411-0.007-6.844,0.227-10.226-0.083
	c-4.191-0.384-8.372-0.354-12.562-0.399c-0.494-0.005-0.943-0.104-1.258-0.529c2.244-3.739,5.025-7.098,7.549-10.639
	c1.739-2.441,3.377-4.965,5.427-7.173c1.9,0.636,3.776,0.181,5.647-0.147c2.735-0.48,5.457-1.033,8.192-1.531
	c1.601,0.312,1.917,1.744,2.547,2.908c2.027,4.839,2.485,10.194,5.069,14.878c1.025,1.858,0.083,2.969-2.082,2.922
	C198.265,220.036,195.485,220.372,192.729,219.889z"/>
<path fill-rule="evenodd" clip-rule="evenodd" fill="#F3B528" d="M332.894,301.477c2.678,1.792,5.361,1.186,8.092,0.095
	c5.271-2.104,10.843-3.003,16.402-3.898c3.525-0.568,6.921-1.73,10.471-2.173c1.728-0.215,3.492-0.348,5.155-0.817
	c6.872-1.939,13.894-3.295,20.731-5.37c2.226-0.676,3.889-1.775,4.436-4.158c1.796,1.812,3.216,3.889,4.362,6.159
	c-0.45,1.328-1.303,2.03-2.766,2.215c-2.302,0.29-4.308,1.56-6.511,2.229c-4.791,1.458-9.729,2.259-14.628,3.133
	c-7.352,1.313-14.563,3.124-21.758,5.062c-4.515,1.216-9.151,1.861-13.728,2.787c-1.183,0.24-2.267,0.732-3.424,1.017
	c-0.72,0.177-1.037,0.687-1.071,1.4c-2.687,0.098-5.304-0.494-7.95-0.804c-1.947-0.229-3.896-0.459-5.85-0.62
	c-0.866-0.071-1.736-0.03-2.518-0.495c-0.239-0.644,0.131-1.09,0.551-1.451c2.31-1.989,4.82-3.651,7.76-4.571
	C331.42,300.974,332.213,300.825,332.894,301.477z"/>
<path fill-rule="evenodd" clip-rule="evenodd" fill="#E68F1A" d="M331.931,192.069c-0.003,0.319,0.063,0.658-0.021,0.955
	c-0.956,3.425-0.256,4.293-4.558,3.242c-1.882-0.46-3.116-0.021-4.028,1.52c-0.868,1.464-2.035,2.089-3.756,1.962
	c-1.731-0.128-3.407-0.208-4.808,1.406c-0.974,1.122-1.796,0.651-2.293-1.064c-0.26-0.897-0.904-1.5-1.72-1.252
	c-1.377,0.419-2.88,0.143-4.177,0.853c-1.195,0.654-2.473,1.09-3.767,1.498c-0.715,0.226-1.459,0.272-1.019,1.56
	c0.295,0.86-1.036,1.214-1.703,1.202c-1.697-0.033-3.298,0.594-4.965,0.553c-1.14-0.028-2.141,0.643-3.29,0.505
	c-0.577-0.069-1.176-0.105-1.418-0.692c-0.266-0.647,0.284-1.008,0.69-1.381c0.116-0.106,0.268-0.174,0.394-0.271
	c2.004-1.527,1.99-1.634-0.356-2.943c-0.39-0.374-0.527-0.907-0.297-1.315c1.424-2.526,1.68-5.449,2.805-8.074
	c1.236-0.796,2.515-0.97,3.822-0.189c1.878,1.12,3.821,0.892,5.77,0.278c5.397-1.7,10.842-3.25,16.456-3.999
	c2.634-0.352,4.759-0.953,5.068-4.041C327.529,185.33,329.744,188.689,331.931,192.069z"/>
<path fill-rule="evenodd" clip-rule="evenodd" fill="#F9BD2B" d="M360.734,312.022c-0.294-0.645-0.779-1.308-0.076-1.961
	c0.739-0.688,1.465-0.109,1.899,0.331c1.534,1.556,3.266,1.333,5.105,0.855c1.692-0.439,3.415-0.759,5.102-1.219
	c4.907-1.338,9.873-2.316,14.94-2.838c2.689-0.277,5.302-1.014,7.752-2.206c2.024-0.986,4.206-1.426,6.37-1.94
	c0.476-0.113,0.931-0.063,1.413,0.02c2.771,0.477,4.333-0.764,4.568-3.585c3.051,3.46,5.605,7.293,8.303,11.019
	c-0.599,0.82-1.537,0.741-2.381,0.879c-7.074,1.149-14.169,2.176-21.214,3.507c-2.748,0.52-5.516,0.145-8.274,0.059
	c-3.994-0.514-8.022-0.683-12.01-1.326c-2.724-0.439-5.493-0.632-8.232-1.037C362.906,312.416,361.869,311.924,360.734,312.022z"/>
<path fill-rule="evenodd" clip-rule="evenodd" fill="#E58919" d="M324.762,182.38c-0.003,0.16-0.031,0.323-0.004,0.478
	c0.488,2.708-0.059,3.518-2.827,3.875c-3.852,0.497-7.65,1.224-11.387,2.288c-2.508,0.714-5.048,1.295-7.533,2.114
	c-2.029,0.669-4.181,1.075-6.045-0.637c-0.52-0.477-1.179-0.459-1.8-0.202c-0.528,0.219-1.063,0.319-1.628,0.304
	c-1.928-0.234-1.222-1.464-0.864-2.451c1.147-3.162,2.782-6.109,4.158-9.171c1.311-2.915,2.684-5.804,4.041-8.7
	c0.469-1.001,0.886-2.081,1.989-2.62c1.032-0.321,2.053-0.373,3.05,0.125c1.157,2.616-0.177,4.787-1.419,6.857
	c-1.016,1.691-1.604,3.456-1.874,5.361c-0.31,2.181,0.36,2.98,2.467,2.452c4.323-1.085,8.627-2.226,13.058-2.795
	c1.751-0.225,2.079-1.753,2.752-2.967C322.31,178.501,324.118,180.045,324.762,182.38z"/>
<path fill-rule="evenodd" clip-rule="evenodd" fill="#EFAA2A" d="M367.544,242.417c-1.604-0.828-3.152-0.089-4.582,0.392
	c-3.722,1.253-7.535,1.756-11.42,2.071c-2.04,0.166-4.042,0.737-6.038,1.26c-2.277,0.597-3.082,0.156-3.962-1.77
	c1.752-3.874,4.359-7.132,7.119-10.332c2.424-2.811,4.536-5.891,6.786-8.851c1.294,0.876,1.879,2.317,2.75,3.521
	c2.784,3.848,5.5,7.745,8.224,11.636C366.871,240.986,367.384,241.61,367.544,242.417z"/>
<path fill-rule="evenodd" clip-rule="evenodd" fill="#E38517" d="M320.896,176.69c0.24,2.436-0.585,3.399-3.263,3.812
	c-2.269,0.349-4.558,0.606-6.8,1.079c-2.007,0.423-3.949,1.145-5.946,1.628c-2.413,0.584-3.535-0.556-3.026-2.966
	c0.472-2.235,0.863-4.451,2.377-6.354c1.316-1.654,1.501-3.801,1.779-5.851c0.437-1.962-0.464-3.674-1.027-5.452
	c-0.093-1.467,0.429-2.681,1.508-3.666c0.059-0.748-0.257-1.312-0.688-1.929c-2.029-2.895-3.96-5.857-5.968-8.767
	c-0.383-0.555-0.575-1.103-0.553-1.752c1.268,0.89,1.879,2.307,2.746,3.506c2.959,4.091,5.842,8.238,8.753,12.364
	c0.635,0.951,0.249,1.719-0.309,2.579c-1.124,1.732-0.822,2.435,1.119,3.101c1.386,0.475,3.049,0.114,4.168,1.384
	C317.658,171.705,319.458,174.07,320.896,176.69z"/>
<path fill-rule="evenodd" clip-rule="evenodd" fill="#E47E21" d="M197.537,202.121c-0.891-0.6-0.8-1.984-1.919-2.401
	c-0.577-0.371-0.886-0.93-0.987-1.579c-0.496-3.175-1.444-6.223-2.553-9.227c-0.293-0.797-0.202-1.569,0.116-2.333
	c1.288-2.418,2.84-4.644,4.799-6.573c1.497-1.264,3.145-2.329,4.661-3.575c1.799-1.478,2.89-1.149,4.027,0.932
	c0.076,0.542,0.011,1.069-0.148,1.588c-0.984,2.802-0.441,5.704-0.557,8.56c-0.073,1.834-0.022,3.673-0.12,5.505
	c-0.903,2.141-0.901,4.412-0.942,6.678c-0.057,0.243-0.14,0.478-0.238,0.708c-0.389,0.938-0.901,1.759-2.104,1.505
	C200.198,201.617,198.885,202.124,197.537,202.121z"/>
<path fill-rule="evenodd" clip-rule="evenodd" fill="#EDAC26" d="M394.801,280.43c-0.084,0.723-0.504,0.99-1.164,0.745
	c-1.601-0.594-3.12-0.443-4.602,0.371c-0.586,0.322-1.24,0.249-1.877,0.253c-0.957,0.005-1.927,0.097-2.871-0.017
	c-3.042-0.363-5.624,0.247-7.528,2.912c-0.951,1.331-2.532,1.051-3.945,1.034c-2.549-0.029-5.072-0.189-7.532-0.98
	c-0.654-0.211-1.427-0.057-2.145-0.069c5.188-3.373,10.877-5.825,16.244-8.867c2.282-1.294,4.598-2.51,6.942-3.679
	c0.642-0.319,1.326-0.611,1.348-1.495C390.406,273.64,392.81,276.885,394.801,280.43z"/>
<path fill-rule="evenodd" clip-rule="evenodd" fill="#FDAA33" d="M125.511,278.376c-0.134,7.157,0.574,14.291,0.613,21.452
	c0.022,4.108,0.358,8.241,0.378,12.37c0.005,1.096-0.023,2.133-1.478,2.259c-0.646-0.303-0.817-0.898-1.021-1.521
	c-1.453-4.447-3.33-8.76-4.242-13.379c-0.367-2.163-1.325-4.18-1.6-6.362c-0.148-1.183-1.284-1.521-1.857-2.332
	c1.888-3.088,4.138-5.921,6.285-8.824C123.517,280.785,124.132,279.271,125.511,278.376z"/>
<path fill-rule="evenodd" clip-rule="evenodd" fill="#F59F19" d="M384.242,314.942c4.396-0.438,8.8-0.78,13.158-1.576
	c4.576-0.837,9.181-1.515,13.767-2.297c1.641-0.28,3.278-0.532,4.943-0.57c2.431,2.21,3.974,5.077,5.738,7.777
	c0.549,0.84,0.353,1.485-0.702,1.766c-0.465,0.123-0.911,0.274-1.395,0.133c-0.803-1.226-2.104-1.392-3.356-1.377
	c-5.733,0.07-11.307-1.226-16.958-1.843c-3.455-0.377-6.886-0.971-10.372-1.156C387.473,315.714,385.76,315.714,384.242,314.942z"/>
<path fill-rule="evenodd" clip-rule="evenodd" fill="#FBB03B" d="M106.806,303.919c0.18,1.225,1.133,1.89,1.986,2.557
	c3.357,2.621,6.657,5.322,10.257,7.619c0.264,0.168,0.52,0.37,0.728,0.604c0.485,0.545,0.428,0.913-0.322,1.213
	c-1.14,0.457-2.314,0.463-3.501,0.474c-5.836,0.926-11.542,0.305-17.152-1.447C101.285,311.131,103.938,307.447,106.806,303.919z"/>
<path fill-rule="evenodd" clip-rule="evenodd" fill="#D67724" d="M192.194,186.581c0.032,1.785,1.028,3.276,1.515,4.923
	c0.797,2.704,1.404,5.447,1.909,8.216c-2.768,1.241-5.799,1.291-8.706,1.894c-1.293,0.268-2.583,0.681-3.96,0.521
	c-0.732-0.084-1.203-0.296-1.293-1.069c0.644-1.639,1.86-2.903,2.854-4.31c2.048-2.899,4.161-5.753,6.244-8.628
	C191.174,187.554,191.572,186.963,192.194,186.581z"/>
<path fill-rule="evenodd" clip-rule="evenodd" fill="#EDA026" d="M205.218,177.159c-1.246-1.405-1.922-1.508-3.277-0.281
	c-0.887,0.803-1.757,1.609-2.771,2.253c-0.676,0.428-1.326,0.893-2.176,0.876c0.364-1.351,1.415-2.271,2.187-3.351
	c3.815-5.341,7.707-10.629,11.579-15.93c0.135-0.185,0.347-0.313,0.523-0.468c2.611,0.77,1.277,2.676,1.218,4.215
	c0.044,4.401-2.978,7.392-5.037,10.813C206.968,176.109,206.488,177.169,205.218,177.159z"/>
<path fill-rule="evenodd" clip-rule="evenodd" fill="#F29A25" d="M98.801,314.938c2.23-0.188,4.422,0.094,6.554,0.71
	c3.488,1.007,7.058,0.622,10.599,0.736c-1.398,0.942-3.077,0.576-4.585,0.781c-2.727,0.371-5.403,1.195-8.188,1.126
	c-0.636-0.016-1.076,0.21-1.169,0.896c-1.864-0.117-3.748-0.128-5.611-1.09C97.063,316.905,97.868,315.877,98.801,314.938z"/>
<path fill-rule="evenodd" clip-rule="evenodd" fill="#FBB526" d="M211.939,164.679c0.041-0.537-0.05-1.127,0.147-1.599
	c0.501-1.201,0.188-2.087-0.805-2.821c0.654-1.261,1.289-2.536,2.523-3.361c0.396,1.009,1.408,1.194,2.214,1.656
	c1.422,0.817,1.562,1.201,0.633,2.596c-0.825,1.241-1.772,2.402-2.694,3.577c-0.388,0.493-0.988,0.421-1.54,0.432
	C212.127,165.131,212.119,164.82,211.939,164.679z"/>
<path fill-rule="evenodd" clip-rule="evenodd" fill="#E07324" d="M116.305,290.862c2.159,0.464,2.323,0.574,2.491,2.493
	c0.1,1.139,0.499,2.169,0.891,3.205c0.381,1.007,0.427,1.988,0.075,2.996c-1.22-1.248-2.258-2.585-1.961-4.748
	c-1.62,0.736-2.934-0.006-4.305-0.065C114.213,293.291,115.102,291.964,116.305,290.862z"/>
<path fill-rule="evenodd" clip-rule="evenodd" fill="#E4A444" d="M315.766,169.406c-1.562-0.634-3.296-0.25-4.879-0.904
	c-2.215-0.915-2.662-2.193-1.015-3.906c0.679-0.706,1.061-1.315,0.915-2.253C312.582,164.602,314.316,166.903,315.766,169.406z"/>
<path fill-rule="evenodd" clip-rule="evenodd" fill="#FCB221" d="M133.742,313.511c-2.229-0.267-2.517-0.674-1.309-2.358
	c1.611-2.246,3.41-4.357,5.096-6.552c3.471-4.515,7.252-8.777,10.67-13.337c1.8-2.402,3.654-4.799,6.139-6.584
	c1.2-1.274,2.699-1.673,4.369-1.363c1.611,0.298,3.179,0.149,4.743-0.229c4.174-1.009,8.334-2.039,12.475-3.216
	c9.178-2.608,18.42-5.14,28-5.955c0.478-0.04,0.992-0.009,1.415-0.212c3.948-1.893,8.259-2.29,12.477-3.079
	c1.455-0.271,2.582-1.202,3.759-2.031c1.096-0.771,2.022-1.841,3.452-2.058c1.683,0.241,2.377,1.749,3.486,2.729
	c2.459,7.379,6.354,14.095,9.763,21.035c0.426,0.868,1.16,1.519,1.766,2.259c1.069,1.309,1.634,2.738,0.974,4.433
	c-0.272,0.5-0.908,0.279-1.256,0.633c-2.872,0.101-5.655,0.828-8.489,1.207c-4.8,0.641-9.58,1.439-14.365,2.19
	c-4.316,0.677-8.626,1.395-12.943,2.063c-2.902,0.449-5.816,0.827-8.721,1.27c-4.71,0.717-9.415,1.472-14.126,2.189
	c-4.789,0.729-9.582,1.43-14.374,2.146c-3.613,0.54-7.229,1.064-10.839,1.631c-4.55,0.715-9.091,1.485-13.643,2.194
	C139.435,312.955,136.629,313.592,133.742,313.511z"/>
<path fill-rule="evenodd" clip-rule="evenodd" fill="#E2A029" d="M332.894,301.477c-1.737-0.081-3.248,0.625-4.716,1.415
	c-2.155,1.16-4.248,2.419-5.837,4.346c-3.111,0.082-6.132-0.691-9.173-1.132c-3.205-0.464-6.431-0.745-9.633-1.224
	c-1.711-0.256-3.415-0.789-5.186-0.535c-1.227-0.632-2.625,0.159-3.852-0.464l-0.004-0.001c3.025-1.757,4.703-4.733,6.731-7.397
	c0.374-0.492,0.938-0.839,1.413-1.253c2.32,0.888,4.832,0.914,7.036,0.216c4.784-1.516,9.767-2.124,14.551-3.566
	c6.536-1.97,13.217-3.319,19.909-4.605c2.714-0.521,5.472-0.852,8.225-1.116c1.375-0.132,2.756,0.125,3.1,1.882v-0.001
	c-0.172,0.147-0.331,0.309-0.48,0.479c-0.159,0.002-0.318,0.003-0.477,0.003c-0.15,0.17-0.344,0.297-0.483,0.478
	c-0.159,0.002-0.318,0.003-0.477,0.003c-0.156,0.164-0.332,0.309-0.483,0.479c-0.165,0.155-0.325,0.315-0.48,0.479
	c-0.159,0.159-0.334,0.303-0.479,0.477c-0.159,0.002-0.319,0.003-0.479,0.004c-0.147,0.171-0.34,0.298-0.48,0.477
	c-0.159,0.002-0.319,0.004-0.479,0.004c-0.148,0.17-0.341,0.298-0.481,0.476c-5.19,2.839-10.377,5.686-15.575,8.509
	C333.888,300.293,333.264,300.735,332.894,301.477z"/>
<path fill-rule="evenodd" clip-rule="evenodd" fill="#D67A18" d="M294.498,303.883c1.278,0.197,2.66-0.457,3.852,0.465
	C297.069,304.161,295.686,304.833,294.498,303.883z"/>
<path fill-rule="evenodd" clip-rule="evenodd" fill="#D67A18" d="M239.76,297.625c0.228-0.362,0.594-0.44,0.979-0.478
	c0.478-0.367,0.955-0.401,1.432,0.003c0,0,0.017,0.025,0.018,0.025C241.493,297.946,240.581,297.538,239.76,297.625z"/>
<path fill-rule="evenodd" clip-rule="evenodd" fill="#E89017" d="M306.497,158.92c-0.16,1.32-1.28,2.4-0.96,3.84
	c-0.877,1.805-1.395,3.806-2.879,5.28c-3.196,6.873-6.381,13.751-9.602,20.613c-0.401,0.854-0.528,1.506,0.481,1.947
	c0.28,2.343-0.496,4.462-1.492,6.497c-0.417,0.852-0.983,1.614-0.908,2.623c-0.782,1.234-1.82,2.179-3.155,2.788
	c-0.897,0.41-1.64,1.052-2.052,1.915c-2.212,4.624-4.504,9.212-6.313,14.018c-1.284,1.738-1.813,3.85-2.836,5.724
	c-1.519,2.785-2.866,5.661-3.884,8.677c-1.029,2.059-2.056,4.119-3.087,6.176c-0.392,0.78-0.852,1.536-0.755,2.463
	c0.01,0.111,0.02,0.223,0.032,0.334c-0.002,0.225-0.031,0.446-0.086,0.664c-1.066,2.32-2.521,4.454-3.325,6.902
	c-0.861,2.239-2.338,4.206-2.891,6.581c-1.308,2.58-2.795,5.074-3.752,7.823c-1.133,2.402-2.533,4.678-3.423,7.197
	c-2.361,5.026-4.844,9.998-6.859,15.181c-1.799,2.505-2.379,5.636-4.176,8.142c-0.269,0.617-0.741,0.934-1.413,0.953
	c-0.863-0.839-0.663-1.891-0.585-2.917c0.554-7.303,1.615-14.546,2.584-21.8c0.158-1.184,0.097-2.388,0.335-3.563
	c0.778-4.878,1.061-9.813,1.67-14.71c1.16-9.33,2.058-18.69,3.171-28.025c0.17-1.425,0.175-2.866,0.439-4.28
	c0.595-4.343,1.145-8.696,1.526-13.058c0.684-7.794,1.738-15.542,2.643-23.308c0.023-1.41,0.294-2.78,0.677-4.132
	c0.541-1.032-0.077-2.232,0.474-3.263c0.155-0.005,0.31-0.013,0.464-0.024c0.103,0.838,0.539,1.085,1.331,0.791
	c4.33-1.61,8.668-3.202,12.996-4.82c4.924-1.841,9.844-3.696,14.761-5.556c5.662-2.142,11.314-4.309,16.982-6.436
	C303.896,159.68,305.207,159.329,306.497,158.92z"/>
<path fill-rule="evenodd" clip-rule="evenodd" fill="#F0A41D" d="M265.221,249.16c0.595-2.141,1.77-4.006,2.835-5.92
	c0.231-0.416,0.515-0.784,0.525-1.279c0.169-0.151,0.33-0.31,0.476-0.482v0c1.089-2.696,2.813-3.634,5.858-2.98
	c2.577,0.554,5.137-0.852,7.671-1.47c11.582-2.823,23.229-5.371,34.783-8.319c4.681-1.194,9.471-2.015,14.221-2.949
	c1.598-0.314,3.593-0.804,4.665,1.313c-5.815,4.461-11.632,8.92-17.761,12.951c-1.344-1.031-2.631-0.982-4.191-0.248
	c-3.853,1.813-8.022,2.568-12.207,3.204c-9.781,1.486-19.372,3.824-28.898,6.451C270.517,250.171,267.867,249.61,265.221,249.16z"/>
<path fill-rule="evenodd" clip-rule="evenodd" fill="#FCB624" d="M246.026,266.936c0.042,3.98-0.833,7.859-1.26,11.788
	c-0.393,3.616-1.205,7.195-1.141,10.854c0.034,1.914-0.811,3.745-0.463,5.678c-0.33,0.632-0.661,1.264-0.992,1.895
	c-0.478-0.001-0.954-0.002-1.432-0.003c0.243-2.043-0.312-3.771-1.971-5.085c-0.71-0.563-1.038-1.395-1.426-2.179
	c-2.747-5.551-5.519-11.089-8.225-16.66c-0.585-1.204-0.909-2.528-0.86-3.903c0.097-2.182,1.751-2.971,3.429-3.352
	c3.238-0.735,6.469-1.568,9.772-1.981C244.194,263.645,245.786,264.719,246.026,266.936z"/>
<path fill-rule="evenodd" clip-rule="evenodd" fill="#F1A81F" d="M265.221,249.16c1.307-0.405,2.551-0.484,3.956-0.127
	c1.604,0.407,3.223-0.145,4.878-0.559c4.002-1.001,7.949-2.224,11.981-3.097c3.252-0.705,6.526-1.308,9.783-1.989
	c4.341-0.908,8.786-1.263,13.079-2.402c2.136-0.566,4.237-1.258,6.193-2.342c1.773-0.984,2.46-0.675,3.402,1.381
	c-3.504,2.96-7.276,5.555-11.042,8.161c-0.688-0.409-1.396-0.183-2.098-0.056c-6.919,1.245-13.829,2.679-20.593,4.479
	c-5.1,1.357-10.224,2.439-15.367,3.527c-2.396,0.507-4.717,0.192-7.056-0.256c-0.03-1.694,1.109-2.932,1.72-4.375
	C264.396,250.703,264.83,249.94,265.221,249.16z"/>
<path fill-rule="evenodd" clip-rule="evenodd" fill="#F2AB1F" d="M262.339,255.88c1.308-0.402,2.584-0.66,3.954-0.1
	c0.54,0.221,1.303,0.165,1.882-0.021c3.195-1.025,6.56-1.095,9.807-1.804c0.619-0.135,1.271-0.22,1.837-0.48
	c5.49-2.524,11.569-2.663,17.285-4.283c2.661-0.755,5.416-1.176,8.118-1.796c0.954-0.219,1.741-0.196,2.23,0.79
	c-0.15,0.02-0.301,0.026-0.452,0.021c-0.171,0.154-0.35,0.301-0.502,0.475l0.001-0.001c-0.161,0.154-0.32,0.311-0.479,0.47
	c-0.152,0.015-0.306,0.021-0.458,0.018c-0.173,0.152-0.352,0.299-0.504,0.474l0.001-0.001c-0.166,0.155-0.326,0.315-0.481,0.481
	l0.001-0.001c-0.165,0.154-0.324,0.315-0.481,0.478l-0.002,0.002c-0.156,0.155-0.314,0.309-0.473,0.461
	c-0.15,0.021-0.302,0.03-0.454,0.029c-0.18,0.148-0.36,0.296-0.508,0.478l0.005-0.004c-0.173,0.147-0.329,0.312-0.489,0.473
	l-0.003,0.003c-0.155,0.155-0.313,0.309-0.471,0.461c-2.69,1.971-5.144,4.277-8.166,5.778c-2.277-0.817-4.451-0.499-6.747,0.198
	c-8.224,2.501-16.594,4.407-25.111,5.617c-1.089,0.155-2.231,0.33-3.173-0.532C259.536,260.877,260.719,258.269,262.339,255.88z"/>
<path fill-rule="evenodd" clip-rule="evenodd" fill="#F5B321" d="M248.397,286.112c0.02-1.564,0.867-2.871,1.464-4.216
	c1.666-3.754,3.511-7.429,5.284-11.135c0.314-0.252,0.656-0.563,1.049-0.539c5.322,0.327,10.089-2.321,15.256-2.833
	c1.679-0.167,3.352-0.31,5.021-0.101c1.147,0.144,2.243,0.484,2.173,2.01c-4.972,4.112-10.287,7.768-15.474,11.593
	c-2.818,2.079-5.677,4.104-8.518,6.154c-0.918-0.611-1.929-0.406-2.936-0.373C250.583,286.71,249.379,287.03,248.397,286.112z"/>
<path fill-rule="evenodd" clip-rule="evenodd" fill="#F4AE20" d="M278.645,269.299c-0.559-1.16-1.521-1.416-2.743-1.442
	c-3.756-0.082-7.475,0.38-10.937,1.698c-3.246,1.235-6.498,1.218-9.819,1.207c0.767-2.565,2.255-4.794,3.36-7.2
	c4.088,0.078,8.038-0.864,11.99-1.702c4.969-1.052,9.925-2.167,14.817-3.553c1.298-0.368,2.532-0.902,3.841-1.257
	c1.535-0.414,2.809,0.115,4.144,0.579c0.138,0.048,0.162,0.425,0.239,0.649v0.001c-0.159,0.156-0.32,0.312-0.481,0.464l-0.014,0.01
	c-0.249,0.287-0.706,0.198-0.937,0.517c-0.49,1.101-1.614,1.5-2.478,2.16C286.051,264.167,282.444,266.869,278.645,269.299z"/>
<path fill-rule="evenodd" clip-rule="evenodd" fill="#F7B624" d="M248.397,286.112c1.566-0.082,3.141,0.198,4.701-0.329
	c0.969-0.327,1.452,0.325,1.555,1.263c-3.038,2.254-6.076,4.508-9.113,6.762c-0.148,0.171-0.352,0.282-0.494,0.46
	c-0.156,0.009-0.313,0.02-0.469,0.034C245.395,291.359,246.321,288.468,248.397,286.112z"/>
<path fill-rule="evenodd" clip-rule="evenodd" fill="#F2AB1F" d="M292.105,259.27c0.182-0.407,0.54-0.497,0.937-0.517
	C292.849,259.141,292.494,259.235,292.105,259.27z"/>
<path fill-rule="evenodd" clip-rule="evenodd" fill="#E2A029" d="M304.095,292.835c-0.005,0.398-0.088,0.758-0.478,0.965
	C303.625,293.403,303.709,293.045,304.095,292.835z"/>
<path fill-rule="evenodd" clip-rule="evenodd" fill="#F1A81F" d="M301.703,252.5c0.157-0.154,0.314-0.308,0.471-0.461
	C302.018,252.192,301.86,252.346,301.703,252.5z"/>
<path fill-rule="evenodd" clip-rule="evenodd" fill="#E89017" d="M245.046,294.268c0.164-0.153,0.329-0.307,0.494-0.46
	C245.375,293.961,245.21,294.114,245.046,294.268z"/>
<path fill-rule="evenodd" clip-rule="evenodd" fill="#E2A029" d="M303.617,293.799c-0.155,0.161-0.312,0.321-0.468,0.482
	C303.306,294.12,303.462,293.96,303.617,293.799z"/>
<path fill-rule="evenodd" clip-rule="evenodd" fill="#E2A029" d="M303.14,294.292c-0.155,0.154-0.311,0.31-0.466,0.464
	C302.829,294.602,302.984,294.446,303.14,294.292z"/>
<path fill-rule="evenodd" clip-rule="evenodd" fill="#F1A81F" d="M303.623,251.061c0.157-0.153,0.314-0.307,0.473-0.461
	C303.938,250.753,303.78,250.907,303.623,251.061z"/>
<path fill-rule="evenodd" clip-rule="evenodd" fill="#F1A81F" d="M304.098,250.598c0.16-0.159,0.321-0.318,0.481-0.478
	C304.419,250.279,304.258,250.438,304.098,250.598z"/>
<path fill-rule="evenodd" clip-rule="evenodd" fill="#F1A81F" d="M304.578,250.121c0.16-0.16,0.32-0.32,0.481-0.481
	C304.898,249.801,304.738,249.961,304.578,250.121z"/>
<path fill-rule="evenodd" clip-rule="evenodd" fill="#F1A81F" d="M305.059,249.641c0.168-0.158,0.335-0.316,0.504-0.474
	C305.395,249.325,305.227,249.483,305.059,249.641z"/>
<path fill-rule="evenodd" clip-rule="evenodd" fill="#F1A81F" d="M306.021,249.15c0.16-0.157,0.319-0.313,0.479-0.47
	C306.34,248.836,306.181,248.993,306.021,249.15z"/>
<path fill-rule="evenodd" clip-rule="evenodd" fill="#F1A81F" d="M306.498,248.681c0.167-0.158,0.334-0.316,0.502-0.475
	C306.833,248.365,306.665,248.523,306.498,248.681z"/>
<path fill-rule="evenodd" clip-rule="evenodd" fill="#F2AB1F" d="M293.056,258.743c0.16-0.154,0.32-0.309,0.481-0.464
	C293.376,258.435,293.216,258.589,293.056,258.743z"/>
<path fill-rule="evenodd" clip-rule="evenodd" fill="#F1A81F" d="M302.177,252.036c0.163-0.157,0.326-0.315,0.489-0.473
	C302.503,251.721,302.34,251.879,302.177,252.036z"/>
<path fill-rule="evenodd" clip-rule="evenodd" fill="#F1A81F" d="M302.661,251.567c0.169-0.159,0.338-0.318,0.508-0.478
	C303,251.249,302.83,251.408,302.661,251.567z"/>
<path fill-rule="evenodd" clip-rule="evenodd" fill="#E2A029" d="M304.571,292.341c-0.159,0.165-0.318,0.331-0.478,0.497
	C304.253,292.672,304.412,292.506,304.571,292.341z"/>
<path fill-rule="evenodd" clip-rule="evenodd" fill="#FCAF24" d="M225.378,266.92c-1.462,0.342-2.423,1.464-3.516,2.342
	c-1.732,1.391-3.67,2.135-5.844,2.471c-2.87,0.441-5.85,0.368-8.479,1.97c-2.201,1.339-4.822,0.758-7.217,1.321
	c-2.458,0.578-4.986,0.864-7.521,1.083c-1.555,0.134-3.104,0.691-4.585,1.246c-2.696,1.01-5.482,1.605-8.311,2.003
	c-2.079,0.292-4.001,1.063-5.922,1.797c-1.413,0.541-2.752,1.091-4.305,1.268c-2.194,0.249-4.364,0.809-6.509,1.37
	c-1.662,0.435-3.248,0.57-4.925,0.055c-1.396-0.429-2.562,0.731-3.907,0.835c0.012-0.502,0.262-0.888,0.541-1.292
	c2.531-3.66,4.789-7.507,7.537-11.018c1.075-1.372,2.064-2.839,3.297-4.055c2.908-2.871,5.157-6.241,7.485-9.549
	c0.839-1.191,1.702-2.397,2.862-3.171c2.963-1.974,4.787-4.841,6.521-7.781c1.743-2.958,3.818-5.644,6.034-8.25
	c1.234-1.45,2.207-3.14,4.121-3.845c0.866-1.411,2.187-1.54,3.574-1.114c1.612,0.494,3.129,0.406,4.671-0.244
	c3.445-1.454,6.754-0.351,10.064,0.601c0.075,0.026,0.199,0.042,0.215,0.091c1.056,3.339,4.192,5.421,5.194,8.84
	c1.601,5.462,4.261,10.49,6.813,15.552c0.755,1.496,1.607,2.951,2.155,4.542C225.755,264.953,226.224,265.957,225.378,266.92z"/>
<path fill-rule="evenodd" clip-rule="evenodd" fill="#FCAF27" d="M210.978,235.24c-0.781,0.844-1.561,0.061-2.156-0.187
	c-2.923-1.215-5.747-0.941-8.55,0.266c-1.088,0.469-2.178,0.617-3.23,0.125c-1.519-0.71-2.911-0.459-4.305,0.275
	c-0.153-1.994,1.413-3.122,2.399-4.472c2.456-3.363,4.659-6.942,7.758-9.802c0.306-0.283,0.382-0.68,0.406-1.083
	c0.105-0.046,0.21-0.092,0.314-0.139c0.228,0.054,0.423,0.167,0.593,0.326c2.713,2.571,3.975,6.052,5.768,9.204
	c0.232,0.996,0.573,1.946,1.024,2.867C211.419,233.475,211.752,234.374,210.978,235.24z"/>
<path fill-rule="evenodd" clip-rule="evenodd" fill="#E48326" d="M197.537,202.121c1.008-1.192,2.462-1.25,3.661-0.845
	c1.336,0.451,1.582-0.368,2.087-1.077c0.779,0.739,0.746,1.723,0.765,2.669c0.104,5.088-0.122,10.174-0.091,15.262
	c0.005,0.804-0.07,1.596-0.664,2.227l0.005,0.007c-2.776-0.003-5.554,0.009-8.331-0.021c-0.764-0.008-1.607,0.252-2.24-0.453
	c2.71-0.003,5.421,0.014,8.132-0.015c1.896-0.02,2.678-1.121,1.684-2.727c-2.057-3.322-2.952-6.97-3.69-10.73
	C198.568,204.968,197.566,203.685,197.537,202.121z"/>
<path fill-rule="evenodd" clip-rule="evenodd" fill="#FCAC1F" d="M256.098,176.2c-0.002,1.119-0.004,2.237-0.007,3.355
	c-0.7,0.646-1.575,0.757-2.462,0.75c-15.66-0.121-31.322,0.035-46.982-0.165c-0.821-0.197-1.484-0.543-1.444-1.545
	c0.006-0.479,0.011-0.958,0.016-1.436c2.506-2.694,3.999-6.083,6.169-9.009c0.77-1.038,0.523-2.288,0.553-3.471
	c0.16,0.161,0.319,0.321,0.479,0.48c0.051,2.265,0.059,2.245,2.253,3.081c0.742,0.283,1.455,0.659,2.148,1.051
	c1.415,0.8,2.873,1.207,4.546,1.19c2.412-0.024,4.635,1.042,6.918,1.685c4.742,1.333,9.513,2.453,14.401,3.124
	c2.212,0.304,4.251,1.297,6.232,2.349c1.408,0.748,2.841,1.437,4.503,1.446c1.928,0.01,1.938,0.035,2.195-1.845
	C255.672,176.83,255.754,176.462,256.098,176.2z"/>
<path fill-rule="evenodd" clip-rule="evenodd" fill="#F08512" d="M313.063,369.341c-1.539-2.707-3.872-4.124-7.085-4.076
	c-4.314,0.065-8.632,0.017-12.948,0.017c-4.396,0-8.792-0.01-13.188,0.004c-2.045,0.006-2.063,0.026-2.066,2.138
	c-0.008,7.434-0.031,14.866,0.021,22.3c0.011,1.563-0.731,3.546,0.409,4.586c1.006,0.917,2.911,0.258,4.416,0.279
	c2.112,0.029,2.122-0.013,2.143-2.063c0.015-1.519,0-3.037,0.004-4.556c0.008-3.226-0.226-2.868,2.771-2.892
	c0.56-0.004,1.119,0,1.679,0c5.596-0.001,11.19-0.036,16.785,0.01c3.42,0.027,5.813-1.574,7.31-4.516
	C315.223,376.816,315.152,373.012,313.063,369.341z M307.615,376.168c-0.261,1.752-0.54,2.042-2.298,2.063
	c-3.196,0.038-6.394,0.011-9.591,0.011c-3.117,0-6.235-0.054-9.351,0.026c-1.3,0.033-1.698-0.474-1.623-1.679
	c0.065-1.035,0.052-2.079,0.007-3.116c-0.046-1.05,0.436-1.385,1.436-1.369c2.638,0.04,5.275,0.012,7.913,0.012
	c3.597,0,7.193-0.014,10.79,0.005c2.199,0.012,2.656,0.45,2.798,2.618C307.727,375.211,307.686,375.697,307.615,376.168z"/>
<path fill-rule="evenodd" clip-rule="evenodd" fill="#E4A229" d="M354.979,288.519c0.16-0.159,0.32-0.318,0.48-0.479
	C355.299,288.2,355.139,288.359,354.979,288.519z"/>
<path fill-rule="evenodd" clip-rule="evenodd" fill="#E4A229" d="M354.019,288.999c0.161-0.159,0.322-0.318,0.483-0.478
	C354.341,288.681,354.18,288.84,354.019,288.999z"/>
<path fill-rule="evenodd" clip-rule="evenodd" fill="#E4A229" d="M353.059,289.48c0.161-0.16,0.322-0.319,0.483-0.479
	C353.381,289.161,353.22,289.32,353.059,289.48z"/>
<path fill-rule="evenodd" clip-rule="evenodd" fill="#E4A229" d="M352.578,289.96c0.16-0.16,0.32-0.319,0.48-0.479
	C352.898,289.641,352.738,289.8,352.578,289.96z"/>
<path fill-rule="evenodd" clip-rule="evenodd" fill="#E4A229" d="M352.099,290.437c0.16-0.159,0.319-0.317,0.479-0.477
	C352.418,290.119,352.259,290.277,352.099,290.437z"/>
<path fill-rule="evenodd" clip-rule="evenodd" fill="#E4A229" d="M351.139,290.917c0.16-0.159,0.32-0.318,0.48-0.477
	C351.459,290.599,351.299,290.758,351.139,290.917z"/>
<path fill-rule="evenodd" clip-rule="evenodd" fill="#E4A229" d="M350.179,291.396c0.16-0.158,0.321-0.317,0.481-0.476
	C350.5,291.079,350.339,291.238,350.179,291.396z"/>
<path fill-rule="evenodd" clip-rule="evenodd" fill="#F18915" d="M302.658,168.041c0.686-1.91,1.279-3.869,2.879-5.28
	c0.084,0.295,0.078,0.677,0.266,0.873c1.359,1.42,1.305,2.879,0.214,4.404C304.897,168.039,303.777,168.04,302.658,168.041z"/>
<path fill-rule="evenodd" clip-rule="evenodd" fill="#FA921D" d="M206.179,179.564c16.638-0.003,33.274-0.006,49.912-0.009
	c0.202,1.33-0.659,2.526-0.481,3.853c-3.108,2.855-6.87,4.802-10.22,7.326c-1.623,1.224-3.005,2.874-5.146,3.319
	c-3.696,0.118-7.297,0.83-10.883,1.658c-5.505,1.27-11.136,1.874-16.48,4.002c-2.982,1.188-6.382,1.32-9.573,0.008
	c0.168-0.438,0.204-0.851,0.104-1.344c-0.347-1.725-0.146-3.388,0.848-4.897c0.747-0.897,0.102-1.984,0.401-2.945
	c0.726-0.306,1.438-0.647,2.229-0.773c11.043-2.871,22.584-3.719,32.654-8.453c-2.079-0.017-4.678-0.595-7.345-0.588
	c-7.675,0.019-15.351,0.037-23.025-0.024C208.105,180.688,206.708,181.161,206.179,179.564z"/>
<path fill-rule="evenodd" clip-rule="evenodd" fill="#F99720" d="M203.307,199.72c3.082-0.151,6.209,0.426,9.243-0.501
	c1.432-0.438,2.894-0.771,4.212-1.578c1.227-0.751,2.705-1.121,4.079-1.186c4.075-0.193,7.927-1.466,11.892-2.169
	c2.66-0.472,5.295-0.956,8.008-0.806c0.062,1.887-1.544,2.461-2.714,3.283c-5.665,3.976-11.751,7.355-16.933,12.017
	c-0.787,0.708-1.764,1.071-2.841,1.123c-3.735-0.598-7.396-0.552-11.023,0.772c-1.9,0.694-2.882,1.726-2.809,3.821
	c0.062,1.734,0.201,3.49-0.178,5.219c-0.095,0.258-0.252,0.471-0.466,0.642c-0.161,0-0.321,0-0.482-0.001
	c-0.003-6.72-0.006-13.439-0.009-20.158C203.292,200.04,203.299,199.88,203.307,199.72z"/>
<path fill-rule="evenodd" clip-rule="evenodd" fill="#FB8D1A" d="M204.823,190.481c-0.022,1.031,0.673,2.196-0.564,2.998
	c-0.001-3.949,0.006-7.898-0.008-11.848c-0.004-1.122-0.002-2.224,0.951-3.037c0.196,0.453,0.516,0.783,0.977,0.97
	c0.711,0.782,1.649,0.458,2.489,0.461c7.593,0.024,15.187,0.083,22.778-0.019c3.2-0.042,6.329,0.798,9.53,0.532
	c0.48-0.04,1.024,0.042,1.07,0.671c0.047,0.638-0.52,0.727-0.974,0.843c-1.151,0.294-2.305,0.586-3.467,0.835
	c-1.956,0.418-3.826,1.109-5.683,1.822c-4.028,1.548-8.2,2.423-12.462,3.048c-3.447,0.505-6.924,0.971-10.22,2.236
	c-1.032,0.396-2.102,0.796-3.21,0.189C205.677,190.478,205.235,190.418,204.823,190.481z"/>
<path fill-rule="evenodd" clip-rule="evenodd" fill="#FCB424" d="M210.978,235.24c0.08-0.967-0.017-1.945-0.666-2.668
	c-0.836-0.931-0.784-1.996-0.773-3.092c-0.018-1.646,1.35-2.171,2.456-2.553c4.332-1.498,8.487-3.281,13.254-3.753
	c3.331-0.33,7.205-0.267,10.212-2.633c0.497-0.392,1.154-0.604,1.788-0.643c3.225-0.199,6.222-1.361,9.307-2.15
	c1.086-0.278,2.189-0.542,3.306-0.235c1.197,0.329,2.08,0.911,1.444,2.381c0.07,2.946-0.645,5.824-0.82,8.729
	c-0.229,3.801-0.991,7.531-1.158,11.338c-0.133,2.992-0.694,5.964-1.057,8.946c-0.276,2.274-0.566,4.547-0.804,6.824
	c-0.368,3.54-0.689,7.084-1.055,10.623c-0.021,0.205-0.252,0.388-0.385,0.581c-0.847-1.729-2.207-2.725-4.143-2.37
	c-1.624,0.298-3.338,0.252-4.864,0.964c-1.262,0.589-2.649,0.584-3.941,0.74c-2.203,0.268-3.667,1.317-4.82,3.051
	c-1.402-0.27-1.828-1.71-2.88-2.4c0.097-1.58-0.53-2.962-1.206-4.323c-1.276-2.577-2.564-5.148-3.856-7.717
	c-1.936-3.848-3.627-7.792-4.778-11.953c-0.259-0.937-0.575-1.834-1.521-2.326c-1.415-0.735-2.048-1.924-2.102-3.497
	C211.89,236.37,211.584,235.714,210.978,235.24z"/>
<path fill-rule="evenodd" clip-rule="evenodd" fill="#FDB224" d="M251.305,219.894c-0.45-1.628-0.823-1.936-2.405-1.928
	c-1.213,0.006-2.324,0.499-3.481,0.77c-2.541,0.594-4.94,1.736-7.654,1.696c-1.061-0.016-2.219,0.377-2.975,1.324
	c-0.731,0.917-1.702,1.063-2.791,1.013c-1.848-0.087-3.674-0.039-5.253,1.158c-0.473,0.358-1.096,0.377-1.62,0.249
	c-2.557-0.627-4.873,0.301-7.15,1.159c-1.565,0.589-3.134,1.171-4.718,1.703c-1.464,0.493-2.712,1.274-3.719,2.442
	c-0.733-0.734-1.28-1.598-1.74-2.519c-0.989-1.981-1.814-4.064-3.613-5.52c-0.323-0.261-0.383-0.68-0.407-1.083
	c0.001-0.158,0.002-0.316,0.003-0.475c0.713-1.271,1.744-2.169,3.001-2.926c3.176-1.91,6.534-3.567,9.146-6.304
	c0.736-0.77,1.823-0.883,2.733-1.332c0.828-0.066,1.558-0.416,2.133-0.971c3.97-3.832,8.748-6.538,13.255-9.626
	c2.023-1.387,4.265-2.481,5.976-4.301c0.269-0.286,0.479-0.628,0.715-0.943c4.392-3.235,8.77-6.491,13.396-9.391
	c0.47-0.295,0.867-0.702,1.475-0.683c-0.012,1.112-0.146,2.197-0.328,3.305c-0.501,3.046-0.755,6.133-1.104,9.204
	c-0.456,4.012-1.073,8.015-1.313,12.04c-0.21,3.494-1.055,6.906-1.091,10.407C251.77,218.92,251.818,219.493,251.305,219.894z"/>
<path fill-rule="evenodd" clip-rule="evenodd" fill="#EE9D1E" d="M269.057,241.479c-0.158,0.161-0.316,0.322-0.476,0.482
	C268.74,241.8,268.898,241.639,269.057,241.479z"/>
<path fill-rule="evenodd" clip-rule="evenodd" fill="#FEEFDF" d="M204.823,190.481c0.334-0.378,0.771-0.343,1.209-0.298
	C205.827,191.086,205.474,191.385,204.823,190.481z"/>
<path fill-rule="evenodd" clip-rule="evenodd" fill="#F99D24" d="M218.661,209.322c-3.864,3.229-7.841,6.307-12.374,8.547
	c-1.03,0.509-1.271,1.858-2.507,2.014c-0.001-2.141,0.064-4.284-0.024-6.42c-0.063-1.507,0.606-2.413,1.925-2.917
	c3.738-1.429,7.531-2.39,11.563-1.316C217.691,209.349,218.188,209.295,218.661,209.322z"/>
</svg>
