<?xml version="1.0" encoding="utf-8"?>
<!-- Generator: Adobe Illustrator 16.0.0, SVG Export Plug-In . SVG Version: 6.00 Build 0)  -->
<!DOCTYPE svg PUBLIC "-//W3C//DTD SVG 1.1//EN" "http://www.w3.org/Graphics/SVG/1.1/DTD/svg11.dtd">
<svg version="1.1" id="Layer_5" xmlns="http://www.w3.org/2000/svg" xmlns:xlink="http://www.w3.org/1999/xlink" x="0px" y="0px"
	 width="500px" height="500px" viewBox="0 0 500 500" enable-background="new 0 0 500 500" xml:space="preserve">
<path fill-rule="evenodd" clip-rule="evenodd" fill="#FEFEFE" d="M256.29,94.83c-0.894-0.87-1.544-1.891-1.919-3.083
	C255.482,92.481,256.203,93.458,256.29,94.83z"/>
<path fill-rule="evenodd" clip-rule="evenodd" fill="#FEFEFE" d="M253.469,91.721c-0.313,0.009-0.626,0.019-0.938,0.029
	c0.354-0.518,0.578-1.429,1.419-0.467C253.662,91.289,253.527,91.462,253.469,91.721z"/>
<path fill-rule="evenodd" clip-rule="evenodd" fill="#FEFEFE" d="M252.119,92.228c-0.048,0.39-0.229,0.689-0.586,0.872
	C251.577,92.708,251.69,92.361,252.119,92.228z"/>
<path fill-rule="evenodd" clip-rule="evenodd" fill="#FEFEFE" d="M250.7,94.159c-0.05,0.396-0.22,0.713-0.592,0.896
	C250.138,94.646,250.244,94.288,250.7,94.159z"/>
<path fill-rule="evenodd" clip-rule="evenodd" fill="#FEFEFE" d="M248.279,97.508c-0.048,0.39-0.23,0.689-0.586,0.872
	C247.738,97.988,247.85,97.642,248.279,97.508z"/>
<path fill-rule="evenodd" clip-rule="evenodd" fill="#FEFEFE" d="M246.862,99.44c-0.05,0.397-0.218,0.716-0.592,0.901
	C246.298,99.93,246.403,99.568,246.862,99.44z"/>
<path fill-rule="evenodd" clip-rule="evenodd" fill="#FEFEFE" d="M254.411,91.786c-0.277-0.072-0.442-0.246-0.485-0.532
	C254.182,91.345,254.344,91.522,254.411,91.786z"/>
<path fill-rule="evenodd" clip-rule="evenodd" fill="#FEFEFE" d="M252.547,91.729c-0.059,0.267-0.197,0.464-0.473,0.542
	C252.135,92.006,252.293,91.827,252.547,91.729z"/>
<path fill-rule="evenodd" clip-rule="evenodd" fill="#FEFEFE" d="M251.506,93.145c-0.023,0.265-0.165,0.437-0.412,0.528
	C251.23,93.497,251.368,93.321,251.506,93.145z"/>
<path fill-rule="evenodd" clip-rule="evenodd" fill="#FEFEFE" d="M251.111,93.651c-0.042,0.279-0.179,0.48-0.464,0.557
	C250.696,93.935,250.853,93.75,251.111,93.651z"/>
<path fill-rule="evenodd" clip-rule="evenodd" fill="#FEFEFE" d="M250.097,95.073c-0.029,0.272-0.169,0.456-0.433,0.541
	C249.808,95.434,249.953,95.253,250.097,95.073z"/>
<path fill-rule="evenodd" clip-rule="evenodd" fill="#FEFEFE" d="M249.694,95.578c-0.048,0.303-0.208,0.526-0.478,0.672
	C249.247,95.935,249.398,95.705,249.694,95.578z"/>
<path fill-rule="evenodd" clip-rule="evenodd" fill="#FEFEFE" d="M249.055,96.542c-0.003,0.252-0.148,0.39-0.374,0.463
	C248.806,96.85,248.931,96.696,249.055,96.542z"/>
<path fill-rule="evenodd" clip-rule="evenodd" fill="#FEFEFE" d="M248.684,97.001c-0.035,0.276-0.173,0.469-0.449,0.55
	C248.385,97.369,248.535,97.185,248.684,97.001z"/>
<path fill-rule="evenodd" clip-rule="evenodd" fill="#FEFEFE" d="M247.666,98.424c-0.023,0.265-0.165,0.438-0.412,0.528
	C247.391,98.777,247.528,98.601,247.666,98.424z"/>
<path fill-rule="evenodd" clip-rule="evenodd" fill="#FEFEFE" d="M247.271,98.931c-0.042,0.279-0.176,0.482-0.462,0.559
	C246.856,99.216,247.012,99.031,247.271,98.931z"/>
<path fill-rule="evenodd" clip-rule="evenodd" fill="#FEFEFE" d="M246.262,100.354c-0.03,0.274-0.171,0.458-0.438,0.541
	C245.971,100.715,246.116,100.535,246.262,100.354z"/>
<path fill-rule="evenodd" clip-rule="evenodd" fill="#FEFEFE" d="M245.856,100.858c-0.05,0.304-0.208,0.533-0.479,0.682
	C245.406,101.222,245.557,100.987,245.856,100.858z"/>
<path fill-rule="evenodd" clip-rule="evenodd" fill="#FEFEFE" d="M259.722,99.876c-0.372-0.19-0.534-0.517-0.59-0.912
	C259.599,99.093,259.702,99.457,259.722,99.876z"/>
<path fill-rule="evenodd" clip-rule="evenodd" fill="#FEFEFE" d="M260.69,101.3c-0.365-0.191-0.531-0.511-0.586-0.904
	C260.558,100.53,260.663,100.89,260.69,101.3z"/>
<path fill-rule="evenodd" clip-rule="evenodd" fill="#FEFEFE" d="M258.755,98.452c-0.224-0.077-0.366-0.217-0.359-0.471
	C258.516,98.138,258.636,98.295,258.755,98.452z"/>
<path fill-rule="evenodd" clip-rule="evenodd" fill="#FEFEFE" d="M259.186,99.019c-0.285-0.085-0.413-0.291-0.436-0.575
	C259,98.556,259.148,98.745,259.186,99.019z"/>
<path fill-rule="evenodd" clip-rule="evenodd" fill="#FEFEFE" d="M260.154,100.448c-0.282-0.085-0.41-0.287-0.431-0.57
	C259.867,100.068,260.011,100.258,260.154,100.448z"/>
<path fill-rule="evenodd" clip-rule="evenodd" fill="#DE6B1B" d="M415.271,318.525c-8.54,1.191-17.08,2.383-25.62,3.575
	c-8.7,1.214-17.4,2.428-26.1,3.642c-8.621,1.202-17.242,2.4-25.862,3.608c-9.806,1.374-19.608,2.769-29.416,4.133
	c-8.463,1.178-16.932,2.323-25.396,3.488c-8.544,1.176-17.12,2.162-25.617,3.611c-5.168,0.881-10.15,0.411-15.218-0.408
	c-11.901-1.926-23.819-3.753-35.732-5.609c-11.913-1.857-23.829-3.699-35.742-5.554c-11.677-1.817-23.353-3.641-35.028-5.465
	c-12.306-1.924-24.611-3.85-36.915-5.787c-0.381-0.06-0.742-0.249-1.113-0.379c0.222-1.577,1.627-1.297,2.563-1.445
	c3.019-0.479,6.016-1.123,9.065-1.383c0.241-0.074,0.491-0.121,0.741-0.155c0.94-0.137,1.911-0.014,2.835-0.313
	c0.564-0.224,1.287-0.076,1.814-0.943c-3.146-2.305-6.411-4.496-9.369-7.066c-1.194-1.038-2.885-1.772-2.918-3.746
	c1.715-3.11,3.852-5.915,6.192-8.574c2.778-1.992,4.696-1.459,5.904,1.666c0.37,0.956,0.96,1.804,1.306,2.765
	c1.259,4.122,2.657,8.2,4.16,12.244c0.446,1.2,0.934,2.253,2.508,1.987c1.534-0.13,3.021-0.557,4.552-0.695
	c13.047-1.86,26.039-4.068,39.069-6.025c22.197-3.333,44.398-6.638,66.543-10.305c1.587-0.263,3.168-0.385,4.77-0.342
	c4.806-0.021,9.451,1.331,14.224,1.635c9.462,0.604,18.688,3.019,28.146,3.708c3.487,0.254,6.914,1.072,10.402,1.373
	c9.606,0.036,18.973,2.111,28.438,3.339c5.86,0.787,11.759,1.24,17.624,1.977c7.236,1.18,14.526,1.953,21.797,2.874
	c0.409,0.008,0.81,0.078,1.205,0.174c0.886,0.335,1.819,0.303,2.745,0.335c5.12,0.696,10.254,1.286,15.389,1.861
	c0.954,0.106,1.889,0.268,2.794,0.582c0.738,0.291,1.501,0.45,2.301,0.404c0.675,0.002,1.349-0.007,2.023,0.004
	c8.271,0.768,16.468,2.118,24.717,3.06c1.272,0.146,2.548,0.185,3.817,0.316C414.015,316.811,415.116,317.068,415.271,318.525z"/>
<path fill-rule="evenodd" clip-rule="evenodd" fill="#9BAC58" d="M303.603,157c0.094,0.121,0.187,0.242,0.28,0.363
	c-0.92,1.84-1.551,3.812-2.539,5.622c-3.104,5.993-5.731,12.214-8.72,18.263c-1.191,2.411-2.483,4.805-3.172,7.441
	c-2.207,3.912-4,8.024-5.81,12.128c-2.574,4.996-5.05,10.036-7.074,15.285c-1.785,3.429-3.646,6.824-4.883,10.508
	c-1.839,3.119-3.306,6.422-4.795,9.714c-1.706,3.441-3.66,6.768-4.847,10.451c-1.351,2.159-2.481,4.422-3.236,6.864
	c-1.446,2.64-2.952,5.252-3.838,8.157c-1.375,2.428-2.697,4.881-3.471,7.586c-2.651,4.56-4.924,9.297-6.698,14.269
	c-1.216,1.917-2.161,3.98-3.197,5.995c-0.438,0.851-0.819,1.7-0.396,2.674c-0.283,1.115-1.271,1.563-2.083,2.182
	c-0.588-0.109-0.824-0.542-0.985-1.052c-0.516-4.317,0.631-8.519,0.939-12.776c0.309-4.262,1.056-8.495,1.471-12.758
	c0.773-6.41,1.465-12.828,2.199-19.241c1.232-10.776,2.343-21.567,3.772-32.32c0.179-1.351,0.02-2.715,0.251-4.058
	c1.171-9.91,2.19-19.837,3.242-29.756c0.284-1.436,0.466-2.872-0.098-4.293c0.099-0.974,0.909-1.381,1.535-1.936
	c2.313-1.018,4.713-1.819,7.035-2.817c1.232-0.53,2.488-1.043,3.415-2.087c3.457-1.891,7.251-2.94,10.929-4.252
	c9.641-3.437,19.019-7.559,28.701-10.882C302.401,156.002,302.986,156.546,303.603,157z"/>
<path fill-rule="evenodd" clip-rule="evenodd" fill="#8FC281" d="M126.708,312.396c-1.559,0.049-3.044,0.754-4.635,0.523
	c-1.313-1.027-1.236-2.521-1.256-3.94c-0.057-4.066-0.133-8.138,0.006-12.2c0.188-5.511-0.504-10.983-0.511-16.482
	c-0.002-1.118-0.009-2.233,0.368-3.309c0.396-1.155,1.165-2.085,1.866-3.05c12.621-17.355,25.243-34.71,37.886-52.049
	c1.026-1.408,1.953-2.917,3.365-4.009c0.737-0.582,1.613-0.641,2.499-0.661c9.984-0.229,19.956,0.203,29.924,0.62
	c0.794,0.172,1.573,0.401,2.297,0.78c0.899,1.123-0.164,1.721-0.711,2.374c-3.422,4.078-6.557,8.357-9.28,12.935
	c-4.45,4.073-8.003,8.85-11.025,14.045c-0.683,1.174-1.293,2.448-2.347,3.302c-4.013,3.251-6.875,7.465-10.053,11.452
	c-5.169,6.484-10.677,12.699-14.488,20.151c-5.143,4.516-8.818,10.282-13.131,15.501
	C133.729,302.92,129.893,307.412,126.708,312.396z"/>
<path fill-rule="evenodd" clip-rule="evenodd" fill="#FDB321" d="M251.633,176.679c-0.246,0.722-1.023,0.895-1.464,1.415
	c-0.964,0.969-2.215,0.757-3.386,0.78c-5.101,0.102-10.2-0.127-15.3-0.067c-9.03,0.174-18.06,0.056-27.091,0.058
	c-0.948,0-1.939,0.016-2.674-0.774c0.498-1.612,1.899-1.097,2.935-1.109c6.148-0.074,12.297-0.034,18.446-0.036
	c6.784-0.002,13.568,0.003,20.426-0.202c-1.62-1.387-3.455-2.304-5.569-2.641c-5.763-0.918-11.484-2.011-17.012-3.942
	c-1.602-0.56-3.306-0.525-4.958-0.792c-2.507-0.406-4.65-1.653-6.864-2.739c-0.882-0.432-1.525-1.163-1.57-2.242
	c0.404-1.841,2.341-2.432,3.219-3.948c0.827-1.428,1.561-2.535-0.245-3.758c-1.249-0.845-1.051-1.977-0.184-3.054
	c2.788-4.478,6.008-8.653,9.1-12.917c11.82-16.299,23.673-32.575,35.497-48.872c0.512-0.706,0.938-1.333,1.906-0.759
	c0.589,0.787,0.408,1.695,0.328,2.549c-0.893,9.534-1.386,19.096-1.806,28.656c-0.319,7.253-0.762,14.5-1.135,21.749
	c-0.368,7.167-0.292,14.363-1.257,21.497c-0.354,2.617,0.094,5.273-0.311,7.892C252.332,174.51,252.303,175.697,251.633,176.679z"/>
<path fill-rule="evenodd" clip-rule="evenodd" fill="#8AAC5F" d="M252.045,173.728c-0.175-8.237,1.069-16.403,1.176-24.638
	c0.075-5.812,0.512-11.636,0.875-17.449c0.423-6.772,0.751-13.544,1.005-20.326c0.229-6.131,0.874-12.248,1.357-18.369
	c0.05-0.629,0.254-1.246,0.387-1.868c1.315-0.195,1.793,0.808,2.366,1.664c3.069,4.584,6.128,9.177,9.205,13.756
	c6.377,9.49,12.642,19.059,19.516,28.205c0.474,0.629,1.03,1.237,1.17,2.067c3.501,5.239,7.038,10.453,10.7,15.58
	c0.703,0.984,1.34,1.98,1.707,3.136c0.061,0.221,0.086,0.448,0.088,0.676c-0.011,0.113-0.023,0.227-0.036,0.34
	c-0.28,0.658-0.853,0.855-1.487,1.062c-5.599,1.821-11.103,3.919-16.523,6.197c-6.755,2.838-13.772,4.938-20.574,7.628
	c-0.282,0.112-0.527,0.319-0.789,0.482c-2.6,1.33-5.287,2.452-8.043,3.411C252.689,175.79,251.783,175.543,252.045,173.728z"/>
<path fill-rule="evenodd" clip-rule="evenodd" fill="#E8A42A" d="M370.741,251.523c3.648,4.318,7.069,8.805,10.018,13.637
	c0.41,0.673,0.91,1.312,1.046,2.125c-0.839,1.049-2.043,0.801-3.114,0.768c-4.334-0.132-8.305,0.628-12.04,3.154
	c-4.021,2.719-8.916,2.848-13.582,3.488c-5.224,0.717-10.297,2.313-15.587,2.637c-0.396,0.024-0.79,0.154-1.151,0.321
	c-8.842,4.085-18.73,3.887-27.86,6.799c-1.11,0.354-2.287,0.387-2.614-1.195c0.068-2.596,2.412-3.905,3.388-5.99
	c3.78-4.595,7.171-9.493,10.961-14.08c0.598-0.724,0.969-1.962,2.364-1.513c1.17,0.809,2.417,0.659,3.676,0.296
	c7.42-2.147,15.142-3.069,22.463-5.663c3.298-1.169,6.78-1.778,10.34-1.574c1.929,0.11,3.541-0.77,5.135-1.707
	C366.205,251.835,368.309,250.948,370.741,251.523z"/>
<path fill-rule="evenodd" clip-rule="evenodd" fill="#46C692" d="M254.638,363.811c3.917,0,7.834-0.018,11.751,0.007
	c2.254,0.014,2.408,0.195,2.445,2.494c0.016,0.959,0.013,1.919-0.01,2.877c-0.027,1.146-0.608,1.778-1.778,1.81
	c-0.559,0.016-1.119,0.014-1.678,0.014c-6.556,0.001-13.111-0.005-19.666,0.009c-0.794,0.001-1.615,0.002-2.375,0.194
	c-0.843,0.214-1.312,0.867-1.277,1.796c0.03,0.823,0.473,1.315,1.225,1.588c0.694,0.251,1.413,0.248,2.131,0.248
	c4.477-0.002,8.953-0.011,13.429-0.017c0.8-0.002,1.6-0.033,2.397,0.001c5.645,0.241,9.021,3.835,8.885,9.438
	c-0.137,5.592-3.452,8.864-9.092,8.886c-7.194,0.028-14.389,0.019-21.583-0.008c-2.863-0.01-3.063-0.251-3.177-3.176
	c-0.134-3.457,0.271-3.926,3.727-3.887c5.433,0.062,10.867-0.08,16.298,0.213c1.586,0.085,3.194-0.062,4.78-0.226
	c1.345-0.139,1.967-0.848,1.982-1.96c0.017-1.236-0.674-2-2.147-2.02c-4.556-0.061-9.113-0.032-13.669-0.039
	c-1.279-0.002-2.562,0.054-3.836-0.021c-5.6-0.324-9.33-5.004-8.421-10.559c0.874-5.336,4.854-7.905,8.868-7.702
	C247.436,363.953,251.04,363.811,254.638,363.811z"/>
<path fill-rule="evenodd" clip-rule="evenodd" fill="#EB991C" d="M271.281,226.598c0.945-3.827,2.732-7.268,4.839-10.563
	c0.272-0.395,0.489-0.823,0.72-1.241c1.755-3.185,1.762-3.208,4.895-1.616c0.884,0.45,1.718,0.353,2.531-0.002
	c5.034-2.195,10.428-2.887,15.769-3.776c4.496-0.749,8.879-1.883,13.191-3.361c4.313-1.479,8.783-2.411,13.305-2.849
	c2.944-0.285,5.616-0.827,7.694-3.078c0.135,0.079,0.312,0.126,0.396,0.242c2.366,3.214,5.015,6.235,6.792,9.855
	c0.62,1.343-0.36,1.914-1.256,2.423c-1.713,0.974-3.573,1.449-5.535,1.02c-2.715-0.595-5.2-0.269-7.527,1.352
	c-2.635,1.834-5.45,2.627-8.563,1.12c-0.679-0.329-1.418-0.206-2.067,0.197c-4.726,2.929-10.079,4.014-15.416,4.883
	c-4.061,0.661-7.512,3.1-11.658,3.417c-2.293,0.176-4.546,0.858-6.817,1.312c-0.626,0.125-1.252,0.316-1.89,0.301
	C277.541,226.157,274.388,225.754,271.281,226.598z"/>
<path fill-rule="evenodd" clip-rule="evenodd" fill="#46C692" d="M401.951,393.14c-4.399,0-8.8,0.027-13.198-0.012
	c-2.209-0.019-2.305-0.136-2.309-2.328c-0.016-8.239-0.017-16.479,0.001-24.718c0.005-2.143,0.135-2.262,2.361-2.266
	c8.8-0.015,17.599-0.015,26.397-0.001c2.373,0.004,2.606,0.248,2.79,2.546c0.342,4.289,0.007,4.653-4.244,4.652
	c-5.6-0.003-11.199-0.002-16.798,0c-0.64,0-1.286-0.036-1.918,0.041c-1.176,0.144-1.8,0.841-1.685,1.893
	c0.115,1.043,0.57,1.863,1.775,1.882c1.839,0.028,3.679,0.019,5.518,0.02c4.32,0.003,8.64-0.012,12.959,0.007
	c2.433,0.01,2.582,0.179,2.628,2.574c0.089,4.622,0.089,4.623-4.526,4.622c-5.279-0.001-10.559-0.009-15.839-0.004
	c-0.852,0.001-1.764-0.208-2.268,0.858c-0.856,1.812-0.098,3.179,1.968,3.204c4.559,0.057,9.118-0.001,13.678,0.03
	c2.236,0.016,4.473,0.141,6.709,0.184c1.203,0.023,1.725,0.62,1.738,1.789c0.068,5.776,0.376,5.011-4.46,5.044
	c-3.759,0.026-7.519,0.005-11.278,0.005C401.951,393.155,401.951,393.147,401.951,393.14z"/>
<path fill-rule="evenodd" clip-rule="evenodd" fill="#46C692" d="M216.776,363.811c4.397,0,8.793-0.018,13.19,0.008
	c2.153,0.012,2.314,0.202,2.413,2.309c0.229,4.885,0.229,4.885-4.75,4.886c-5.436,0-10.871-0.004-16.307,0.005
	c-0.717,0.001-1.45-0.013-2.146,0.125c-1.027,0.204-1.392,0.978-1.357,1.965c0.036,1.028,0.525,1.655,1.599,1.707
	c0.638,0.031,1.278,0.033,1.917,0.034c5.596,0.002,11.191-0.011,16.787,0.008c2.456,0.008,2.693,0.277,2.749,2.781
	c0.096,4.364,0.047,4.415-4.287,4.415c-5.036,0-10.072-0.001-15.108,0c-0.559,0.001-1.122-0.021-1.678,0.024
	c-1.596,0.133-1.926,0.511-1.903,2.103c0.023,1.609,0.279,1.874,1.991,1.947c6.39,0.274,12.783,0.184,19.175,0.196
	c3.297,0.007,3.297,0.006,3.297,3.356c0,3.461-0.041,3.487-3.46,3.483c-8.073-0.009-16.147,0-24.22-0.003
	c-0.719,0-1.438-0.021-2.157-0.042c-0.842-0.024-1.349-0.427-1.416-1.297c-0.067-0.875-0.184-1.751-0.178-2.625
	c0.049-7.671,0.114-15.341,0.189-23.012c0.023-2.346,0.044-2.363,2.471-2.371C207.983,363.8,212.38,363.81,216.776,363.811z"/>
<path fill-rule="evenodd" clip-rule="evenodd" fill="#46C692" d="M190.942,376.549c-1.842,1.994-3.201,4.153-4.674,6.221
	c-1.948,2.732-3.843,5.503-5.806,8.225c-1.264,1.753-1.344,1.737-2.646-0.092c-2.918-4.101-5.809-8.222-8.737-12.316
	c-0.455-0.636-0.755-1.419-1.522-1.839c-0.731,0.413-0.44,1.114-0.444,1.688c-0.029,4.156,0.001,8.313-0.044,12.468
	c-0.022,2.038-0.195,2.163-2.203,2.222c-0.958,0.027-1.918,0.002-2.876,0.027c-1.2,0.032-1.759-0.592-1.821-1.732
	c-0.035-0.638-0.049-1.277-0.05-1.916c-0.003-6.634-0.013-13.268,0.007-19.901c0.004-1.436,0.151-2.87,0.184-4.306
	c0.022-0.963,0.389-1.501,1.419-1.484c1.438,0.021,2.877,0.011,4.315,0.017c1.178,0.005,1.894,0.74,2.509,1.614
	c1.793,2.549,3.576,5.104,5.371,7.651c1.335,1.894,2.649,3.804,4.038,5.658c1.072,1.431,1.409,1.432,2.46-0.033
	c2.843-3.958,5.719-7.897,8.416-11.954c1.423-2.141,3.054-3.188,5.733-3.015c3.608,0.233,3.728-0.435,3.737,3.919
	c0.016,7.354,0.026,14.707,0.037,22.06c0.001,0.479,0.01,0.961-0.028,1.438c-0.026,0.314-0.06,0.662-0.211,0.925
	c-1.13,1.955-2.983,1.085-4.551,1.031c-1.542-0.053-1.971-0.551-1.998-2.112c-0.067-3.995-0.02-7.992-0.061-11.988
	C191.488,378.264,191.813,377.417,190.942,376.549z"/>
<path fill-rule="evenodd" clip-rule="evenodd" fill="#EE9D1E" d="M271.281,226.598c2.054-1.241,4.128-1.778,6.592-1.053
	c1.921,0.565,3.95-0.112,5.9-0.475c3.117-0.579,6.223-1.227,9.327-1.868c0.621-0.128,1.373-0.189,1.804-0.574
	c2.205-1.968,5.049-1.637,7.621-2.267c3.921-0.961,7.881-1.797,11.604-3.419c0.577-0.252,1.172-0.564,1.623-0.991
	c1.092-1.035,2.124-1.077,3.443-0.338c1.925,1.076,3.92,1.001,5.825-0.208c1.21-0.769,2.522-1.353,3.742-2.122
	c1.659-1.046,3.585-0.827,5.34-0.344c2.284,0.628,4.244-0.094,6.207-0.991c0.668-0.305,1.079-0.94,1.103-1.738
	c1.732,1.417,2.829,3.292,3.8,5.259c-0.152,0.905-0.955,1.202-1.574,1.659c-3.301,2.438-6.588,4.894-9.833,7.408
	c-0.942,0.456-1.623,1.655-2.944,1.047c-2.211-1.201-4.524-0.767-6.792-0.327c-9.185,1.781-18.23,4.176-27.352,6.237
	c-7.095,1.604-14.117,3.514-21.224,5.066c-1.874,0.409-3.742,0.887-5.686,0.766c-1.192-0.075-2.42-0.085-3.29-1.123
	C267.71,232.804,269.119,229.515,271.281,226.598z"/>
<path fill-rule="evenodd" clip-rule="evenodd" fill="#E4A229" d="M306.345,282.758c-0.043,1.165,0.326,1.515,1.587,1.182
	c4.836-1.276,9.707-2.416,14.634-3.295c2.494-0.445,4.997-0.85,7.504-1.226c0.562-0.084,1.121-0.142,1.593-0.451
	c2.652-1.739,5.649-2.614,8.728-2.771c3.065-0.156,5.948-0.987,8.895-1.604c3.882-0.813,7.871-0.905,11.736-1.864
	c2.188-0.542,4.336-1.176,6.113-2.544c2.808-2.161,5.985-2.799,9.403-2.791c1.755,0.004,3.511-0.069,5.267-0.107
	c0.001,0-0.049,0.02-0.049,0.02c0.067,0.284,0.287,0.424,0.522,0.548c0.46,0.169,0.785,0.461,0.882,0.963
	c0.603,1.722-0.869,2.04-1.843,2.526c-5.795,2.898-11.504,5.954-17.167,9.1c-1.956,1.086-3.78,2.411-5.88,3.238
	c-1.818,0.805-3.384,2.123-5.338,2.65c-0.901,0.243-1.798,0.762-2.74,0.111c-1.111-1.215-2.556-1.104-4.005-1.041
	c-7.783,0.339-15.255,2.3-22.738,4.26c-6.706,1.757-13.423,3.483-20.213,4.895c-1.768,0.367-3.552,0.388-4.446-1.705
	C300.205,288.663,302.672,285.26,306.345,282.758z"/>
<path fill-rule="evenodd" clip-rule="evenodd" fill="#46C692" d="M105.74,363.81c3.2,0,6.399-0.002,9.599,0.001
	c3.222,0.003,3.224,0.005,3.258,3.121c0.009,0.799,0.024,1.6-0.007,2.397c-0.041,1.044-0.603,1.615-1.656,1.661
	c-0.559,0.024-1.119,0.021-1.679,0.021c-5.999,0.001-11.999-0.002-17.997,0.005c-0.719,0.001-1.45-0.024-2.152,0.097
	c-1.147,0.198-1.868,0.864-1.872,2.116c-0.012,3.439-0.065,6.879-0.016,10.317c0.021,1.517,0.656,2.153,2.119,2.446
	c0.467,0.094,0.954,0.126,1.431,0.127c4.239,0.011,8.479,0.033,12.718-0.001c1.824-0.015,2.727-1.653,1.909-3.293
	c-0.352-0.705-0.964-0.764-1.617-0.767c-1.76-0.008-3.521,0.026-5.279-0.019c-1.885-0.048-1.992-0.178-2.22-2.029
	c-0.01-0.08-0.006-0.16-0.016-0.239c-0.582-4.839-0.292-5.188,4.687-5.15c3.196,0.024,6.392,0.131,9.587,0.237
	c1.81,0.06,2.033,0.261,2.048,2.146c0.038,4.719,0.039,9.438-0.002,14.156c-0.015,1.709-0.238,1.944-1.977,1.953
	c-7.198,0.036-14.399,0.132-21.595-0.023c-5.519-0.12-9.136-4.407-8.795-10.147c0.185-3.118,0.247-6.211-0.024-9.335
	c-0.444-5.118,3.626-9.554,8.751-9.757c0.16-0.006,0.32-0.007,0.48-0.007c3.439,0,6.879,0,10.318,0
	C105.74,363.834,105.74,363.821,105.74,363.81z"/>
<path fill-rule="evenodd" clip-rule="evenodd" fill="#46C692" d="M121.14,380.905c0.143-3.196,0.015-6.392,0.313-9.587
	c0.409-4.396,3.422-7.382,7.849-7.482c6.469-0.148,12.94-0.212,19.41-0.028c4.554,0.13,7.383,2.557,8.386,7.04
	c0.461,2.063,0.33,4.139,0.36,6.207c0.062,4.237,0.021,8.477,0.018,12.714c-0.001,0.64,0.016,1.285-0.066,1.916
	c-0.118,0.899-0.615,1.441-1.597,1.436c-1.279-0.007-2.558,0.014-3.837,0.02c-1.203,0.006-1.725-0.611-1.701-1.796
	c0.027-1.358,0.007-2.719,0.002-4.078c-0.013-3.172-0.118-3.286-3.19-3.291c-3.999-0.008-7.998,0.016-11.996-0.011
	c-2.359-0.015-2.359-0.046-2.73-2.31c-0.727-4.427,0.059-5.386,4.548-5.09c3.597,0.236,7.192,0.115,10.788,0.184
	c2.258,0.042,2.588-0.391,2.6-2.694c0.012-2.389-0.453-2.999-2.653-3.017c-5.678-0.047-11.356-0.045-17.034,0
	c-1.975,0.016-2.349,0.426-2.364,2.463c-0.042,5.598-0.008,11.196-0.04,16.794c-0.015,2.656-0.051,2.656-2.642,2.899
	c-4.214,0.395-4.546,0.05-4.437-4.134C121.198,386.343,121.14,383.623,121.14,380.905z"/>
<path fill-rule="evenodd" clip-rule="evenodd" fill="#46C692" d="M330.494,363.811c3.039,0,6.079-0.03,9.117,0.007
	c5.582,0.069,8.939,3.49,8.938,9.045c-0.002,5.838,0.013,11.676-0.011,17.514c-0.004,0.987,0.329,2.148-0.958,2.708
	c-1.611,0.699-4.51,0.518-5.303-0.335c-0.546-0.585-0.485-1.326-0.52-2.038c-0.072-1.514,0.119-3.037-0.19-4.545
	c-0.375-1.827-0.633-2.14-2.534-2.167c-3.838-0.055-7.677-0.022-11.516-0.026c-0.64-0.001-1.282,0.033-1.919-0.013
	c-1.608-0.116-1.967-0.463-2.027-2.026c-0.044-1.118,0.001-2.239-0.007-3.358c-0.008-1.177,0.556-1.783,1.742-1.791
	c0.56-0.005,1.12-0.014,1.68-0.014c4.079-0.003,8.158,0.024,12.236-0.017c2.053-0.021,2.511-0.538,2.567-2.576
	c0.057-2.02-0.638-2.9-2.496-3.109c-0.555-0.063-1.118-0.054-1.678-0.054c-4.879-0.004-9.757-0.01-14.636,0
	c-3.22,0.007-3.292,0.087-3.308,3.421c-0.024,4.959-0.04,9.917-0.06,14.875c-0.002,0.56,0.025,1.122-0.019,1.679
	c-0.138,1.749-0.461,2.064-2.185,2.133c-0.799,0.031-1.6,0.014-2.399,0.007c-2.286-0.021-2.487-0.195-2.492-2.436
	c-0.013-5.918-0.002-11.836,0-17.755c0-0.16,0.003-0.319,0.006-0.479c0.097-4.936,3.554-8.718,8.613-8.677
	c3.119,0.024,6.238,0.004,9.356,0.004C330.494,363.795,330.494,363.803,330.494,363.811z"/>
<path fill-rule="evenodd" clip-rule="evenodd" fill="#ECA829" d="M370.741,251.523c-0.644,0.334-1.313,0.498-2.053,0.537
	c-1.451,0.076-2.791,0.554-3.994,1.395c-2.011,1.406-4.172,2.21-6.701,1.964c-3.229-0.314-6.364,0.544-9.33,1.552
	c-6.105,2.076-12.392,3.304-18.658,4.667c-1.624,0.354-3.197,0.931-4.814,1.322c-1.7,0.41-2.241,0.137-2.998-1.294
	c-0.367-0.718,0.12-1.246,0.482-1.717c1.746-2.269,3.261-4.71,5.128-6.884c0.187-0.224,0.379-0.444,0.551-0.679
	c0.096-0.151,0.206-0.296,0.317-0.438c0.104-0.136,0.223-0.264,0.342-0.386c0.056-0.06,0.118-0.117,0.174-0.177
	c0.108-0.116,0.225-0.228,0.338-0.34c-0.007-0.002,0.16-0.171,0.153-0.174c0.137-0.184,0.251-0.383,0.354-0.59
	c0.062-0.145,0.146-0.274,0.248-0.394c0.094-0.128,0.199-0.243,0.312-0.354c-0.003-0.004,0.167-0.168,0.163-0.172
	c0.103-0.121,0.21-0.237,0.313-0.357c-0.005-0.004,0.142-0.191,0.137-0.195c0.074-0.143,0.155-0.28,0.233-0.42
	c0.073-0.145,0.163-0.278,0.26-0.406c0.094-0.129,0.202-0.248,0.315-0.359c-0.005-0.003,0.166-0.167,0.162-0.17
	c0.1-0.117,0.207-0.23,0.31-0.345c-0.005-0.004,0.143-0.182,0.138-0.186c0.074-0.136,0.153-0.268,0.228-0.405
	c0.063-0.146,0.144-0.28,0.235-0.409c0.088-0.135,0.191-0.255,0.305-0.368c-0.003-0.003,0.171-0.168,0.167-0.172
	c0.109-0.118,0.227-0.229,0.344-0.339c0.056-0.058,0.115-0.112,0.171-0.17c0.107-0.122,0.219-0.238,0.326-0.358
	c0.046-0.066,0.098-0.129,0.144-0.196c0.079-0.144,0.163-0.283,0.245-0.425c0.076-0.149,0.17-0.286,0.271-0.419
	c0.103-0.135,0.216-0.259,0.332-0.382c0.058-0.064,0.118-0.124,0.175-0.188c0.111-0.138,0.228-0.27,0.34-0.41
	c0.052-0.08,0.107-0.151,0.159-0.229c0.163-0.257,0.345-0.492,0.621-0.64c0.23-0.019,0.434,0.04,0.622,0.175
	c0.174,0.167,0.326,0.345,0.473,0.534c1.283,1.589,3.017,1.324,4.62,0.931c5.78-1.416,11.843-1.342,17.507-3.369
	c1.206-0.432,2.345-0.074,3.255,0.871C366.23,244.088,368.766,247.605,370.741,251.523z"/>
<path fill-rule="evenodd" clip-rule="evenodd" fill="#F6BA29" d="M358.179,310.584c-3.38-0.352-6.765-0.657-10.138-1.065
	c-3.213-0.388-6.415-0.873-9.619-1.337c-0.78-0.113-1.548-0.314-2.321-0.475c-0.511-0.62-1.871,0.329-1.914-0.857
	c-0.035-0.945,0.898-1.431,1.726-1.797c0.366-0.162,0.751-0.278,1.145-0.345c10.484-1.785,20.704-4.724,31.06-7.069
	c5.216-1.182,10.532-1.88,15.755-3.066c4.912-1.116,9.688-2.6,14.24-4.77c2.477,2.255,4.031,5.103,5.25,8.166
	c0.305,2.181-0.802,3.947-3.225,3.948c-4.472,0.002-8.382,1.664-12.4,3.213c-2.151,0.829-4.447,1.28-6.768,1.447
	c-5.689,0.407-11.073,2.285-16.612,3.42c-3.556,0.729-3.549,0.759-6.641-0.533c-0.17-0.271-0.295,0.373-0.067,0.148
	c0.029-0.028,0.07,0.046,0.188,0.148C358.093,309.983,358.248,310.232,358.179,310.584z"/>
<path fill-rule="evenodd" clip-rule="evenodd" fill="#46C692" d="M370.663,393.127c-3.356,0-6.715,0.068-10.069-0.016
	c-5.659-0.141-9.069-3.56-9.171-9.185c-0.066-3.675-0.068-7.353,0.014-11.026c0.119-5.354,3.698-8.928,9.136-9.06
	c4.313-0.104,8.631-0.028,12.947-0.03c2.638-0.002,5.275-0.027,7.912,0.011c1.947,0.028,2.148,0.247,2.445,2.167
	c0.025,0.158,0.045,0.316,0.062,0.476c0.398,3.825-0.236,4.542-4.069,4.547c-5.755,0.007-11.509-0.001-17.264,0.005
	c-0.718,0.001-1.44,0.007-2.153,0.084c-1.091,0.119-1.805,0.731-1.815,1.861c-0.035,3.675-0.033,7.351-0.009,11.026
	c0.009,1.229,0.725,1.911,1.929,2.031c0.794,0.08,1.595,0.102,2.393,0.109c6.15,0.058,12.304-0.122,18.453,0.185
	c2.178,0.109,2.275,0.129,2.554,2.238c0.063,0.475,0.083,0.956,0.094,1.435c0.063,2.791-0.587,3.36-3.319,3.298
	c-3.354-0.077-6.711-0.019-10.067-0.019C370.663,393.219,370.663,393.173,370.663,393.127z"/>
<path fill-rule="evenodd" clip-rule="evenodd" fill="#E9931A" d="M334.225,200.113c-0.948,2.494-2.831,3.579-5.413,3.428
	c-1.621-0.095-3.199,0.295-4.713,0.597c-4.109,0.82-8.241,1.558-12.22,3.044c-4.083,1.525-8.384,2.419-12.705,3.065
	c-5.021,0.751-10.046,1.484-14.725,3.583c-1.583,0.71-2.763,0.661-3.943-0.767c-0.88-1.063-1.479-0.934-2.239,0.189
	c-0.66,0.975-0.935,2.236-2.146,2.783c-0.021-0.48,0.027-0.943,0.234-1.391c1.999-4.312,3.989-8.627,5.985-12.941
	c0.204-0.441,0.494-0.811,0.945-1.028c0.631-0.95,1.436-1.695,2.473-2.197c0.827-0.4,1.652-0.786,2.354,0.14
	c0.581,0.767,0.296,1.499-0.249,2.175c-0.383,0.476-0.97,0.844-0.894,1.885c2.874-0.207,5.671-0.64,8.459-1.15
	c0.312-0.058,0.672-0.199,0.804-0.48c1.495-3.197,4.85-3.069,7.503-4.078c1.633-0.621,3.528-0.652,4.606,1.335
	c0.578,1.066,1.351,0.981,2.175,0.363c1.349-1.013,2.815-1.398,4.501-1.127c1.547,0.249,2.526-0.714,3.406-1.813
	c1.065-1.332,2.361-2.03,4.164-1.801c3.162,0.401,3.171,0.347,4.343-2.563c0.121-0.302,0.28-0.569,0.538-0.773
	C330.115,193.484,332.396,196.638,334.225,200.113z"/>
<path fill-rule="evenodd" clip-rule="evenodd" fill="#EFB026" d="M350.507,286.602c2.728-0.736,5.102-2.28,7.678-3.362
	c2.353-0.946,4.73-0.337,7.052,0.037c3.102,0.501,5.831,0.309,8.031-2.316c1.267-1.511,3.099-2.005,5.01-1.653
	c2.411,0.442,4.723,0.309,7.085-0.354c1.61-0.451,3.321-0.342,4.987-0.041c1.576,1.262,2.621,2.903,3.392,4.74
	c0.096,2.799-2.056,3.621-4.067,4.298c-3.178,1.069-6.448,1.857-9.69,2.73c-11.665,3.143-23.569,5.12-35.397,7.472
	c-2.748,0.547-5.439,1.349-8.023,2.434c-2.82,1.184-5.565,1.331-8.306-0.162c-0.981-0.912-0.058-1.404,0.487-1.876
	c0.842-0.728,1.79-1.331,2.77-1.86c6.018-3.248,11.995-6.565,17.952-9.924c0.22-0.092,0.449-0.147,0.686-0.179
	C350.27,286.589,350.388,286.595,350.507,286.602z"/>
<path fill-rule="evenodd" clip-rule="evenodd" fill="#E68F1A" d="M327.469,190.59c-0.004,0.718-0.056,1.41-0.302,2.113
	c-0.705,2.017-1.565,2.731-3.57,2.074c-2.314-0.759-3.918-0.112-5.084,1.813c-0.942,1.557-2.338,1.956-3.895,1.595
	c-1.498-0.348-2.629,0.011-3.69,1.002c-0.285,0.267-0.659,0.439-0.998,0.645c-0.867,0.526-1.486,0.334-1.905-0.61
	c-0.28-0.63-0.235-1.528-1.081-1.747c-1.09-0.28-2.253-0.37-3.297,0.054c-1.406,0.571-2.838,1.01-4.29,1.439
	c-1.002,0.296-2.228,0.63-2.163,2.154c0.03,0.697-0.441,0.911-1.08,0.997c-2.197,0.294-4.383,0.681-6.584,0.932
	c-0.727,0.083-1.389,0.338-2.091,0.454c-0.681,0.113-1.3-0.066-1.591-0.759c-0.253-0.603,0.052-1.098,0.501-1.477
	c0.424-0.357,0.93-0.621,1.336-0.994c0.477-0.436,0.509-0.981,0.099-1.496c-0.364-0.457-0.776-0.416-1.251-0.109
	c-1.069,0.688-2.163,1.337-3.247,2.003c1.495-4.205,3.208-8.305,5.759-12.003c1.12-1.228,2.394-1.212,3.644-0.305
	c1.656,1.202,3.365,1.201,5.231,0.606c5.867-1.871,11.841-3.35,17.906-4.386c2.336-0.399,4.066-1.142,4.481-3.688
	C323.366,183.633,325.261,187.228,327.469,190.59z"/>
<path fill-rule="evenodd" clip-rule="evenodd" fill="#D77A24" d="M196.848,218.468c-6.793,0.249-13.555-0.653-20.347-0.549
	c-4.234,0.065-8.471-0.02-12.706-0.039c0.271-1.196,1.015-2.146,1.705-3.098c3.396-4.684,6.835-9.336,10.257-14.001
	c0.422-0.576,0.851-1.145,1.471-1.531c1.037,0.5,2.092,0.623,3.248,0.413c3.377-0.614,6.76-1.184,10.062-2.154
	c1.672,0.228,2.202,1.632,2.931,2.835c1.773,5.091,2.573,10.489,5.055,15.372C199.519,217.669,198.822,218.519,196.848,218.468z"/>
<path fill-rule="evenodd" clip-rule="evenodd" fill="#F3B528" d="M327.939,300.035c0.635,0.023,1.319-0.117,1.876,0.248
	c2.021,1.327,4.056,0.652,5.95-0.126c5.118-2.103,10.499-3.041,15.898-3.983c2.966-0.518,5.899-1.227,8.833-1.913
	c3.476-0.813,7.105-0.808,10.515-1.901c6.055-1.943,12.34-3,18.402-4.89c1.968-0.613,3.585-1.751,4.327-3.817
	c1.982,1.677,3.241,3.867,4.37,6.15c-0.703,1.236-1.572,2.174-3.175,2.132c-0.528-0.014-1.083,0.254-1.596,0.463
	c-7.12,2.908-14.688,3.918-22.178,5.269c-4.923,0.887-9.788,2.059-14.582,3.477c-4.729,1.397-9.588,2.158-14.389,3.203
	c-1.779,0.388-3.585,0.654-5.371,1.016c-0.954,0.193-1.789,0.623-2.345,1.458c0.392,0.697,1.322,0.192,1.624,0.888
	c-2.445-0.251-4.893-0.491-7.337-0.756c-1.895-0.206-3.78-0.564-5.678-0.628c-1.604-0.054-3.165-0.276-4.731-0.55
	c-0.575-0.692-0.421-1.402,0.168-1.913c2.249-1.95,4.763-3.47,7.648-4.286C326.794,299.398,327.443,299.522,327.939,300.035z"/>
<path fill-rule="evenodd" clip-rule="evenodd" fill="#81A761" d="M331.293,225.584c0.914-0.268,1.346-1.355,2.389-1.403
	c2.977-1.816,5.882-3.718,8.571-5.965c1.055-0.881,2.224-2.237,3.978-1.239c2.027,1.884,3.374,4.255,4.736,6.615
	c-1.516,2.819-3.724,5.14-5.575,7.717c-1.677,2.333-3.553,4.519-5.184,6.893c-0.71,1.033-1.494,2.141-3.042,1.983
	c-3.672-0.748-7.246-0.759-10.671,1.096c-1.562,0.846-3.387,0.815-5.096,1.169c-4.895,1.016-9.906,1.495-14.65,3.205
	c-0.303,0.109-0.629,0.062-0.941-0.002c-1.284-1.119,0.008-1.681,0.607-2.133c2.954-2.225,5.973-4.362,8.848-6.69
	c4.63-3.147,9.059-6.571,13.554-9.903C329.571,226.367,330.23,225.593,331.293,225.584z"/>
<path fill-rule="evenodd" clip-rule="evenodd" fill="#F9BD2B" d="M358.179,310.584c-0.363-0.563-1.007-0.376-1.507-0.569
	c-0.469-0.182-0.878-0.518-0.672-1.08c0.226-0.612,0.776-0.835,1.366-0.594c0.507,0.208,0.943,0.584,1.421,0.869
	c1.198,0.717,2.343,0.942,3.829,0.547c3.752-1.002,7.563-1.767,11.309-2.832c2.186-0.622,4.515-0.817,6.796-1.013
	c3.772-0.323,7.324-1.336,10.726-2.963c2.489-1.19,5.119-1.571,7.879-1.502c2.331,0.059,3.59-1.156,4.036-3.478
	c2.955,3.16,5.571,6.571,7.682,10.358c-0.467,1.313-1.704,1.346-2.751,1.517c-7.938,1.302-15.857,2.728-23.855,3.627
	c-0.782,0.027-1.575-0.063-2.338,0.201c-0.633,0-1.286,0.204-1.88-0.187c-4.025-0.488-8.053-0.959-12.075-1.474
	c-2.208-0.282-4.406-0.637-6.609-0.959c-0.736-0.533-1.683,0.085-2.42-0.44C358.803,310.604,358.49,310.594,358.179,310.584z"/>
<path fill-rule="evenodd" clip-rule="evenodd" fill="#E58919" d="M320.307,180.9c0.559,2.697,0.014,3.419-2.774,3.954
	c-6.695,1.284-13.347,2.761-19.84,4.867c-1.956,0.634-3.789,0.706-5.311-0.867c-1.112-1.148-2.217-0.326-3.338-0.181
	c0.021-1.231,0.5-2.334,1.008-3.417c1.56-3.323,3.127-6.643,4.728-9.947c1.46-3.016,2.981-5.997,4.181-9.138
	c0.472-1.233,0.888-2.588,2.067-3.434c2.044,0.083,2.186,1.456,1.59,2.818c-1.212,2.771-1.778,5.793-3.377,8.413
	c-0.798,1.307-1.117,2.815-1.274,4.327c-0.212,2.04,0.399,2.683,2.408,2.454c1.821-0.208,3.607-0.666,5.355-1.202
	c1.838-0.563,3.683-1.101,5.604-1.102c2.232-0.001,3.82-1.39,5.619-2.343C318.632,177.311,319.841,178.846,320.307,180.9z"/>
<path fill-rule="evenodd" clip-rule="evenodd" fill="#EFAA2A" d="M337.615,240.086c0.923-0.652,1.648-1.489,2.319-2.392
	c2.992-4.032,5.984-8.064,9.02-12.064c0.571-0.754,1.338-1.361,2.014-2.037c0.665,0.333,1.119,0.893,1.53,1.482
	c3.109,4.449,6.21,8.903,9.313,13.355c0.549,0.788,1.045,1.605,1.349,2.524c-1.392-0.562-2.731-0.437-4.177-0.011
	c-3.414,1.003-6.83,1.982-10.463,2.038c-1.624,0.025-3.328,0.261-4.88,0.893c-1.385,0.564-2.808,0.523-4.232,0.472
	c-1.641-0.059-1.918-0.382-2.329-2.344c-0.073-0.079-0.146-0.158-0.219-0.237c-0.007-0.108-0.015-0.215-0.024-0.323
	c0.073-0.435,0.228-0.835,0.503-1.185C337.43,240.199,337.522,240.143,337.615,240.086z"/>
<path fill-rule="evenodd" clip-rule="evenodd" fill="#E38517" d="M316.953,176.104c-0.946,1.902-2.655,2.852-4.607,2.884
	c-3.719,0.06-7.106,1.482-10.651,2.228c-4.126,0.868-5.149-0.089-4.189-4.187c0.364-1.558,0.81-3.044,1.715-4.394
	c0.897-1.337,1.202-2.938,1.706-4.44c0.25-0.745,0.398-1.481,0.844-2.184c1.073-1.695,0.996-1.815-0.742-3.271
	c0.506-1.297,0.987-2.604,1.527-3.887c0.266-0.629,0.502-1.337,1.328-1.488c0.991,1.037,1.925,2.116,2.464,3.474
	c0.629,0.886-0.12,1.463-0.478,2.126c-0.972,1.803-0.726,2.458,1.172,3.245c1.313,0.544,2.84,0.459,4.022,1.378
	C313.365,170.192,315.533,172.889,316.953,176.104z"/>
<path fill-rule="evenodd" clip-rule="evenodd" fill="#E37E22" d="M193.063,200.201c-1.109-0.491-1.187-2.011-2.396-2.403
	c-0.741-0.737-0.741-1.743-0.841-2.657c-0.375-3.402-2.108-6.445-2.528-9.827c1.384-2.671,3.09-5.107,5.266-7.199
	c1.684-1.021,3.139-2.35,4.729-3.495c1.445-1.04,2.773-1.033,3.753,0.687c0.313,0.943-0.1,1.796-0.319,2.675
	c0.348,5.83,0.089,11.614-1.175,17.333c-0.158,0.713,0.21,1.414,0.267,2.13c0.022,0.417-0.042,0.82-0.206,1.205
	c-0.121,0.246-0.283,0.463-0.478,0.655C197.3,200.859,195.168,200.436,193.063,200.201z"/>
<path fill-rule="evenodd" clip-rule="evenodd" fill="#EDAC26" d="M390.35,278.912c-0.117,0.105-0.231,0.301-0.35,0.304
	c-2.693,0.064-5.315,0.579-7.946,1.107c-0.983,0.197-2.022-0.021-3.054-0.272c-2.121-0.517-4.162-0.26-5.581,1.654
	c-2.082,2.809-4.91,2.762-7.942,2.308c-2.415-0.36-4.826-0.853-7.292-0.773c7.587-4.544,15.373-8.718,23.312-12.612
	c0.784-0.385,1.662-0.699,1.663-1.812C385.865,271.961,388.47,275.179,390.35,278.912z"/>
<path fill-rule="evenodd" clip-rule="evenodd" fill="#FDAA33" d="M120.679,276.987c0.457,0.545,0.327,1.205,0.353,1.832
	c0.387,9.229,0.663,18.46,0.501,27.699c-0.038,2.147-0.066,4.304,0.54,6.4c-1.691,0.253-1.984,0.164-2.473-1.262
	c-1.487-4.337-3.302-8.566-4.313-13.062c-0.459-1.77-1.013-3.534-1.289-5.326c-0.268-1.744-1.076-2.931-2.498-3.818
	c2.55-4.15,5.552-7.981,8.419-11.907C120.095,277.302,120.422,277.17,120.679,276.987z"/>
<path fill-rule="evenodd" clip-rule="evenodd" fill="#8DC07B" d="M384.12,313.046c7.292-1.142,14.588-2.257,21.873-3.442
	c1.71-0.277,3.479-0.409,5.05-1.276c1.383,0.654,2.005,2.017,2.859,3.143c1.106,1.457,2.161,2.962,3.117,4.52
	c0.964,1.572,0.768,1.927-1.048,2.461c-0.223,0.065-0.468,0.053-0.701,0.076c-0.594-0.851-1.404-1.224-2.446-1.249
	c-6.473-0.151-12.813-1.463-19.213-2.242c-3.164-0.385-6.33-0.748-9.495-1.12C383.823,313.624,383.823,313.334,384.12,313.046z"/>
<path fill-rule="evenodd" clip-rule="evenodd" fill="#FBB03B" d="M110.023,314.91c-0.155,0.013-0.31,0.02-0.466,0.021
	c-5.158,0.487-10.157-0.224-15.016-1.99c2.235-3.778,4.739-7.361,7.7-10.612c2.024,2.866,5.015,4.642,7.692,6.761
	c1.56,1.234,3.251,2.303,4.893,3.433c0.333,0.229,0.729,0.441,0.736,0.87c0.01,0.604-0.549,0.76-0.982,0.877
	c-0.531,0.144-1.102,0.14-1.655,0.199C112.017,315.004,110.923,314.32,110.023,314.91z"/>
<path fill-rule="evenodd" clip-rule="evenodd" fill="#D67724" d="M187.299,185.314c2.076,3.904,3.185,8.069,3.369,12.484
	c-1.081,1.152-2.629,1.017-3.975,1.347c-2.449,0.6-4.956,0.961-7.437,1.432c-1.112,0.211-1.9-0.046-2.028-1.327
	c0.034-0.154,0.027-0.334,0.109-0.457c2.977-4.476,5.994-8.923,9.533-12.987c0.139-0.168,0.283-0.333,0.432-0.493L187.299,185.314z"
	/>
<path fill-rule="evenodd" clip-rule="evenodd" fill="#EDA027" d="M200.734,175.249c-1.067-1.016-2.088-1.131-3.282-0.087
	c-0.586,0.513-1.211,0.994-1.768,1.545c-0.869,0.859-1.831,1.489-3.119,1.408c-0.017-0.607,0.358-1.037,0.686-1.48
	c4.243-5.75,8.488-11.499,12.739-17.243c0.138-0.186,0.336-0.327,0.506-0.488c1.115-0.486,1.331,0.341,1.512,1.093
	c0.217,0.902,0.178,1.828,0.063,2.745c-0.104,4.553-3.318,7.565-5.522,11.075C202.128,174.484,201.605,175.109,200.734,175.249z"/>
<path fill-rule="evenodd" clip-rule="evenodd" fill="#F29B26" d="M94.541,312.94c2.744-0.226,5.283,0.943,7.968,1.163
	c2.356,0.193,4.699,0.545,7.048,0.827c-1.563,0.883-3.359,0.444-5.023,0.896c-1.958,0.529-4.014,0.699-6.029,1.008
	c-0.411,0.063-0.757,0.192-0.994,0.547c-1.895,0.063-3.747-0.085-5.599-1.002C92.545,314.902,93.45,313.854,94.541,312.94z"/>
<path fill-rule="evenodd" clip-rule="evenodd" fill="#FBB527" d="M207.468,163.239c-0.003-1.006-0.02-2.013-0.003-3.02
	c0.011-0.701-0.179-1.221-0.969-1.316c0.919-2.023,2.25-3.746,3.845-5.276c-0.745,1.56,0.081,2.46,1.281,3.311
	c1.375,0.974,1.358,1.039,0.478,2.417c-1.099,1.721-2.007,3.635-4.153,4.364C207.655,163.691,207.646,163.38,207.468,163.239z"/>
<path fill-rule="evenodd" clip-rule="evenodd" fill="#D99C47" d="M301.097,155.985c-0.646-2.555-2.565-4.339-3.944-6.443
	c-2.428-3.704-4.973-7.332-7.45-11.003c-0.352-0.521-0.683-1.083-0.601-1.768c2.105,1.545,3.238,3.894,4.635,5.962
	c2.619,3.88,5.447,7.606,8.101,11.458c0.627,0.911,1.403,1.729,1.765,2.808c-0.68-0.165-1.36-0.331-2.042-0.496
	c0.001,0-0.001,0.007-0.001,0.007C301.391,156.348,301.217,156.189,301.097,155.985z"/>
<path fill-rule="evenodd" clip-rule="evenodd" fill="#E17424" d="M111.5,289.451c2.368,0.221,2.5,0.409,2.867,2.595
	c0.365,2.177,1.311,4.267,0.92,6.55c-0.684-1.459-1.948-2.648-1.959-4.423c-0.004-0.713-0.592-0.833-1.184-0.844
	c-1.256-0.023-2.518-0.104-3.71,0.425C109.309,292.215,110.065,290.592,111.5,289.451z"/>
<path fill-rule="evenodd" clip-rule="evenodd" fill="#E4A546" d="M311.063,167.587c-1.854-0.007-3.623-0.398-5.264-1.263
	c-1.526-0.804-1.708-1.564-0.898-3.084c0.44-0.828,1.437-1.318,1.445-2.402C308.254,162.854,309.825,165.104,311.063,167.587z"/>
<path fill-rule="evenodd" clip-rule="evenodd" fill="#96B360" d="M346.23,216.978c-2.074,0.071-3.415,1.471-4.864,2.68
	c-2.313,1.929-4.725,3.693-7.685,4.523c2.028-2.269,4.708-3.721,7.049-5.597c1.417-1.135,2.983-2.083,4.482-3.115
	C345.875,215.754,346.147,216.302,346.23,216.978z"/>
<path fill-rule="evenodd" clip-rule="evenodd" fill="#E8A42A" d="M382.277,267.853c-0.285-0.076-0.463-0.256-0.522-0.548
	C382.047,267.375,382.188,267.589,382.277,267.853z"/>
<path fill-rule="evenodd" clip-rule="evenodd" fill="#E37E22" d="M187.302,185.312c-0.144,0.164-0.288,0.329-0.432,0.493
	C186.896,185.537,187.047,185.38,187.302,185.312z"/>
<path fill-rule="evenodd" clip-rule="evenodd" fill="#FCB221" d="M126.708,312.396c0.176-1.396,0.847-2.564,1.706-3.64
	c6.125-7.674,12.24-15.354,18.389-23.009c0.948-1.181,2.03-2.261,3.372-3.027c0.96-1.033,2.205-1.116,3.509-1.113
	c5.882,0.011,11.538-1.071,16.893-3.571c0.652-0.305,1.339-0.529,2.049-0.646c9.033-1.492,17.735-4.673,26.94-5.29
	c0.396-0.027,0.799-0.075,1.18-0.186c3.587-1.034,7.11-2.223,10.865-2.71c2.234-0.289,4.413-1.328,6.117-3.054
	c0.737-0.747,1.694-1.193,2.802-1.151c1.497,0.24,2.392,1.38,3.43,2.306c1.949,7.728,6.387,14.33,9.805,21.388
	c1.048,2.164,3.08,3.833,3.576,6.355c0.094,0.247,0.049,0.466-0.131,0.658c-3.147-0.226-6.156,0.724-9.224,1.136
	c-4.643,0.622-9.253,1.488-13.878,2.239c-6.82,1.107-13.675,1.982-20.479,3.212c-4.844,0.876-9.755,1.374-14.629,2.086
	c-3.458,0.506-6.904,1.104-10.359,1.634c-4.868,0.746-9.741,1.457-14.609,2.204c-3.142,0.482-6.277,1.003-9.417,1.505
	c-3.842,0.614-7.682,1.246-11.529,1.831C130.966,311.874,128.834,312.117,126.708,312.396z"/>
<path fill-rule="evenodd" clip-rule="evenodd" fill="#E2A029" d="M327.939,300.035c-2.068-0.31-3.667,0.874-5.338,1.746
	c-1.191,0.622-2.268,1.46-3.422,2.157c-0.725,0.438-0.878,1.077-0.825,1.835c-3.105-0.633-6.283-0.743-9.396-1.378
	c-4.423-0.902-8.97-0.972-13.413-1.851c-1.77-0.35-3.657-0.103-5.491-0.128c-0.306-0.251-0.318-0.565-0.195-0.909
	c0.136-0.184,0.305-0.332,0.502-0.447c1.923-0.571,2.8-2.26,3.964-3.663c1.489-1.795,2.467-4.087,4.811-5.074
	c0.718,1.485,1.732,1.953,3.337,1.746c3.951-0.511,7.689-1.885,11.547-2.778c7.41-1.716,14.771-3.635,22.165-5.425
	c1.923-0.466,3.868-0.869,5.884-0.715c2.15,0.165,4.219-0.682,6.398-0.509c1.36,0.107,2.14,0.488,2.041,1.959v-0.001
	c-0.173,0.146-0.331,0.308-0.48,0.477c-6.845,4.158-14.129,7.541-20.881,11.863C328.672,299.244,328.171,299.48,327.939,300.035z"/>
<path fill-rule="evenodd" clip-rule="evenodd" fill="#CF7A1A" d="M290.031,301.522c0.007,0.299,0.015,0.597,0.021,0.896
	c-1.544,0.279-3.004-0.325-4.484-0.536c-5.184-0.739-10.397-1.202-15.583-1.889c-4.242-0.562-8.449-1.395-12.664-2.155
	c-0.635-0.115-1.257-0.188-1.895-0.195c-4.782-0.064-9.482-0.886-14.176-1.665c-1.362-0.227-2.697-0.161-4.042-0.272
	c0.021-0.151,0.035-0.304,0.042-0.456c0.056-0.836,0.262-1.531,1.331-1.414c0.268,0.332,0.625,0.437,1.036,0.411
	c2.479-0.757,4.908,0.04,7.314,0.37c13.294,1.826,26.565,3.812,39.862,5.621C287.959,300.396,289.219,300.427,290.031,301.522z"/>
<path fill-rule="evenodd" clip-rule="evenodd" fill="#A6B664" d="M384.12,313.046c-0.002,0.29-0.003,0.579-0.004,0.869
	c-0.623-0.007-1.246-0.014-1.869-0.021c-0.32-0.099-0.345-0.247-0.073-0.444C382.726,312.851,383.438,313.018,384.12,313.046z"/>
<path fill-rule="evenodd" clip-rule="evenodd" fill="#F29B26" d="M110.023,314.91c0.862-0.838,1.927-0.344,2.902-0.442
	C112.058,315.274,110.996,314.797,110.023,314.91z"/>
<path fill-rule="evenodd" clip-rule="evenodd" fill="#F6BA29" d="M359.114,310.613c0.816,0.094,1.727-0.328,2.42,0.44
	C360.711,310.999,359.817,311.328,359.114,310.613z"/>
<path fill-rule="evenodd" clip-rule="evenodd" fill="#C0873C" d="M382.174,313.45c0.021,0.148,0.046,0.298,0.073,0.444
	c-0.709,0.031-1.462,0.276-2.028-0.408C380.87,313.475,381.521,313.462,382.174,313.45z"/>
<path fill-rule="evenodd" clip-rule="evenodd" fill="#7EA862" d="M290.031,301.522c-5.777-1.082-11.617-1.722-17.439-2.488
	c-4.799-0.632-9.572-1.446-14.364-2.137c-4.084-0.589-8.186-1.055-12.261-1.696c-2.114-0.334-4.29-0.266-6.349-0.955
	c-0.116-0.346-0.368-0.692,0.125-0.979c0.458-0.267,1.023-0.376,1.334-0.87c0.164-1.066,1.044-1.529,1.793-2.081
	c2.791-2.055,5.684-3.979,8.173-6.418c5.568-3.4,10.664-7.47,15.904-11.329c2.555-1.882,5.261-3.576,7.537-5.82
	c4.485-2.567,8.34-6.023,12.572-8.944c0.146-0.15,0.305-0.29,0.461-0.429c0.075-0.072,0.155-0.139,0.23-0.211
	c0.146-0.147,0.302-0.285,0.457-0.425c0.076-0.072,0.156-0.14,0.232-0.212c0.154-0.147,0.319-0.279,0.491-0.406
	c0.175-0.131,0.359-0.242,0.549-0.349c3.255-1.874,6.089-4.328,9.07-6.571c0.141-0.142,0.293-0.275,0.443-0.405
	c0.07-0.065,0.146-0.127,0.216-0.192c0.134-0.127,0.28-0.245,0.425-0.359c0.136-0.113,0.286-0.211,0.438-0.301
	c0.143-0.088,0.295-0.167,0.445-0.244c0.139-0.088,0.282-0.171,0.421-0.26c0.129-0.104,0.263-0.201,0.397-0.299
	c0.137-0.104,0.283-0.191,0.433-0.274c0.229-0.14,0.451-0.29,0.669-0.454c0.155-0.127,0.318-0.235,0.489-0.338
	c0.772-0.313,1.445-0.92,2.362-0.791c0.471-0.054,0.992,0.005,1.404-0.18c4.337-1.951,9.088-2.086,13.629-3.136
	c1.619-0.374,3.265-0.646,4.905-0.914c0.648-0.106,1.161-0.407,1.73-0.704c3.254-1.694,6.675-1.659,10.136-0.74
	c0.202,0.053,0.351,0.311,0.524,0.475l-0.024-0.033c-0.531,0.356-0.104,1.049-0.509,1.45l0.012-0.013
	c-0.171,0.165-0.347,0.325-0.482,0.522l0.021-0.034c-0.348,0.208-0.242,0.681-0.538,0.919l-0.011,0.017
	c-0.146,0.173-0.315,0.323-0.451,0.503l0.011-0.012c-0.185,0.147-0.358,0.305-0.479,0.512l0.024-0.023
	c-0.339,0.207-0.232,0.68-0.541,0.906l-0.021,0.032c-0.141,0.17-0.286,0.336-0.438,0.497l0.006-0.007
	c-0.175,0.154-0.349,0.31-0.473,0.511l0.019-0.02c-0.224,0.146-0.39,0.339-0.475,0.596c0.005,0.132-0.026,0.254-0.096,0.366
	c-0.134,0.161-0.275,0.314-0.426,0.46l-0.002,0.003c-0.163,0.163-0.337,0.315-0.464,0.511l0.018-0.018
	c-0.198,0.136-0.37,0.296-0.487,0.509l0.025-0.022c-0.35,0.209-0.245,0.682-0.537,0.925l-0.008,0.012
	c-0.15,0.17-0.322,0.321-0.454,0.508l0.015-0.015c-0.191,0.142-0.364,0.301-0.483,0.511l0.025-0.022
	c-0.344,0.207-0.238,0.681-0.541,0.912l-0.016,0.024c-0.147,0.168-0.295,0.336-0.443,0.502l0.009-0.011
	c-0.182,0.15-0.355,0.307-0.476,0.514l0.023-0.022c-0.341,0.2-0.219,0.681-0.538,0.895c-2.073,2.905-4.146,5.811-6.218,8.716
	c-3.587,4.342-7.028,8.795-10.331,13.356c-0.652,0.899-1.283,1.812-2.215,2.457c-3.224,4.428-7.4,8.071-10.42,12.671
	c-1.841,2.805-3.946,5.407-6.435,7.664c-1.143,1.036-1.806,2.411-2.795,3.546L290.031,301.522z"/>
<path fill-rule="evenodd" clip-rule="evenodd" fill="#FCB424" d="M223.785,267.4c-1.37-0.025-1.781-1.489-2.88-1.92
	c-3.158-7.956-7.913-15.205-10.387-23.464c-0.184-0.612-0.358-1.323-0.841-1.689c-2.34-1.773-2.912-4.438-3.706-7.004
	c-0.458-1.933-2.104-3.602-1.306-5.816c0.208-0.544,0.579-0.99,1.072-1.253c4.461-2.378,9.043-4.424,14.218-4.518
	c1.141-0.021,2.226-0.046,3.251-0.591c0.352-0.187,0.716-0.396,1.107-0.451c6.229-0.875,12.007-3.455,18.112-4.79
	c1.938-0.423,3.79-0.874,4.118-3.299c0.045-0.331,0.396-0.463,0.753-0.403c0.12,3.115-0.438,6.163-0.803,9.239
	c-0.401,3.386-0.677,6.791-1.099,10.178c-0.47,3.777-0.922,7.557-1.335,11.34c-0.396,3.629-0.637,7.278-1.125,10.894
	c-0.434,3.22-0.498,6.488-1.287,9.664c-0.169,0.683-0.084,1.426-0.135,2.14c-0.055,0.776,0.186,1.61-0.422,2.285
	c-0.255-0.205-0.422-0.466-0.5-0.784c-0.788-3.233-1.539-3.88-4.835-3.282C231.654,264.617,227.427,265.049,223.785,267.4z"/>
<path fill-rule="evenodd" clip-rule="evenodd" fill="#FDB224" d="M247.297,212.201c-0.346,0.265-0.427,0.632-0.474,1.047
	c-0.247,2.193-0.312,2.245-2.492,2.806c-1.311,0.338-2.625,0.667-3.917,1.067c-1.896,0.59-3.723,1.294-5.776,1.418
	c-1.716,0.104-3.443,0.686-4.861,1.828c-0.991,0.799-2.181,1.288-3.347,0.865c-1.271-0.461-2.16,0.096-3.146,0.581
	c-0.998,0.49-1.896,0.984-3.158,0.558c-0.928-0.313-2.034-0.158-3.069,0.136c-3.14,0.893-6.22,1.953-9.232,3.201
	c-1.029,0.426-1.965,1.048-2.759,1.852c-1.105,0.267-1.621-0.571-1.999-1.28c-1.303-2.448-2.719-4.831-4.06-7.256
	c-0.256-1.241,0.515-2.035,1.388-2.559c4.506-2.707,8.738-5.81,13.01-8.858c0.198-0.115,0.404-0.215,0.612-0.311
	c2.048-0.671,3.373-2.339,4.972-3.625c3.73-2.998,7.854-5.396,11.918-7.889c1.357-0.833,2.701-1.68,3.673-2.987
	c4.257-4.389,9.518-7.424,14.55-10.767c0.456-0.303,0.998-0.562,1.515-0.04c0.075,3.915-0.809,7.74-1.1,11.622
	c-0.189,2.531-0.566,5.048-0.78,7.579c-0.294,3.482-1.034,6.917-1.094,10.425C247.667,211.812,247.427,212.006,247.297,212.201z"/>
<path fill-rule="evenodd" clip-rule="evenodd" fill="#F0A41D" d="M331.293,225.584c-4.25,3.665-8.911,6.787-13.424,10.104
	c-0.742,0.546-1.321,1.41-2.37,1.484c-0.968,0.408-1.964,0.592-3.021,0.457c-0.971-0.125-1.955-0.008-2.802,0.44
	c-4.257,2.257-8.962,2.75-13.595,3.479c-8.517,1.339-16.884,3.319-25.183,5.621c-1.306,0.362-2.607,0.775-3.946,0.961
	c-1.933,0.268-3.819,0.17-5.299-1.386c0.832-3.878,2.867-7.201,4.864-10.542c3.184,0.884,6.276,0.337,9.404-0.439
	c7.79-1.935,15.589-3.84,23.417-5.612c8.444-1.912,16.826-4.096,25.329-5.752c1.753-0.342,3.502-0.153,5.253-0.168
	C330.769,224.223,331.229,224.735,331.293,225.584z"/>
<path fill-rule="evenodd" clip-rule="evenodd" fill="#A3BE7A" d="M250.645,181.988c-0.301,0.088-0.645,0.11-0.896,0.274
	c-5.131,3.35-10.295,6.657-14.838,10.814c-0.131-0.03-0.262-0.06-0.394-0.087c-1.886-0.486-3.81-0.478-5.68-0.083
	c-3.579,0.756-7.172,1.425-10.771,2.071c-2.597,0.466-5.079,1.266-7.546,2.195c-3.468,1.306-7.035,1.955-10.707,0.763
	c-0.418-2.358-0.238-4.671,0.399-6.98c0.271-0.985,0.746-1.713,1.643-2.172c5.396-1.652,10.842-3.062,16.48-3.694
	c2.523-0.283,4.96-1.104,7.363-1.943c3.364-1.177,6.757-2.261,10.578-3.206c-1.667-1.165-3.432-0.256-4.741-1.163
	c-0.212-0.205-0.234-0.429-0.068-0.672c6.235-0.003,12.469-0.007,18.704-0.011C251.34,179.269,251.213,180.602,250.645,181.988z"/>
<path fill-rule="evenodd" clip-rule="evenodd" fill="#FCB624" d="M223.785,267.4c0.977-1.963,2.891-2.358,4.753-2.787
	c2.16-0.498,4.343-0.893,6.504-1.383c0.795-0.181,1.585-0.16,2.376-0.142c3.344,0.075,3.63,0.374,3.649,3.655
	c0.002,0.398,0.015,0.797,0.023,1.196c0.159,3.933-0.792,7.757-1.202,11.631c-0.217,2.049-0.363,4.118-0.629,6.169
	c-0.347,2.673-0.796,5.369-0.677,8.094c-0.676,0.254-0.759,1.065-1.331,1.415c-0.677-0.056-0.983-0.432-0.98-1.103
	c0.005-1.298-0.649-2.279-1.57-3.101c-0.854-0.763-1.397-1.714-1.898-2.726c-2.549-5.147-5.122-10.284-7.703-15.417
	C224.226,271.167,223.736,269.351,223.785,267.4z"/>
<path fill-rule="evenodd" clip-rule="evenodd" fill="#F1A81F" d="M261.654,246.745c3.04,1.369,6.031,0.694,9.037-0.168
	c7.402-2.124,14.859-4,22.486-5.158c3.521-0.535,7.027-1.186,10.521-1.881c1.386-0.276,2.86-0.58,4.043-1.291
	c1.948-1.169,3.866-1.694,6.086-1.11c0.523,0.138,1.112,0.031,1.671,0.037c-2.644,2.662-5.851,4.597-8.833,6.82
	c-0.511,0.381-1.041,0.731-1.379,1.292c-0.82,0.691-1.77,1.141-2.777,1.48c-1.504-0.478-3.017-0.296-4.478,0.103
	c-7.752,2.117-15.791,2.988-23.432,5.651c-3.582,1.248-7.496,1.383-11.235,2.176c-1.687,0.358-3.429-0.344-4.979-1.214
	C258.951,250.981,259.926,248.68,261.654,246.745z"/>
<path fill-rule="evenodd" clip-rule="evenodd" fill="#F2AB1F" d="M258.385,253.481c1.188,0.01,2.407-0.161,3.477,0.551
	c0.619,0.412,1.196,0.141,1.818-0.002c2.928-0.671,5.841-1.416,8.864-1.578c0.777-0.042,1.599-0.233,2.299-0.566
	c4.434-2.111,9.312-2.487,13.989-3.637c3.302-0.812,6.638-1.481,9.946-2.265c0.953-0.226,1.894-0.175,2.844-0.151
	c0.584,0.015,0.808,0.415,0.887,0.933l0.002-0.003c-0.265,0.27-0.727,0.177-0.952,0.519l0.024-0.025
	c-0.206,0.124-0.365,0.296-0.511,0.484l0.013-0.008c-0.276,0.255-0.738,0.164-0.963,0.515l0.025-0.028
	c-0.212,0.121-0.376,0.292-0.509,0.494l0.021-0.021c-0.209,0.125-0.352,0.316-0.508,0.495c-3.051,2.806-6.24,5.419-10.011,7.228
	c-2.801-0.571-5.413-0.077-8.17,0.742c-7.389,2.197-14.925,3.872-22.548,5.074c-1.279,0.202-2.712,0.414-3.878-0.591
	C255.196,258.625,256.739,256.029,258.385,253.481z"/>
<path fill-rule="evenodd" clip-rule="evenodd" fill="#F5B321" d="M274.794,266.996c-0.458,1.096-1.483,1.662-2.35,2.303
	c-6.195,4.58-12.438,9.097-18.671,13.627c-0.768,0.559-1.515,1.17-2.5,1.327c-1.554,0.814-3.268,0.63-4.926,0.757
	c-0.96,0.074-1.709-0.326-2.009-1.328c1.522-5.136,3.784-9.925,6.749-14.383c0.293-0.13-0.108-0.078,0.2-0.125
	c6.969-1.063,13.61-4.136,20.87-3.419C273.184,265.856,274.278,265.813,274.794,266.996z"/>
<path fill-rule="evenodd" clip-rule="evenodd" fill="#F4AE20" d="M274.794,266.996c-0.577-0.271-1.139-0.541-1.812-0.561
	c-4.239-0.123-8.428-0.009-12.513,1.423c-3.014,1.056-6.157,1.594-9.381,1.44c0.424-2.881,1.898-5.288,3.455-7.657
	c3.614,0.182,7.104-0.478,10.599-1.347c4.542-1.129,9.146-2.004,13.711-3.048c0.999-0.229,1.976-0.635,2.905-1.08
	c1.886-0.902,3.875-0.793,5.868-0.757c0.723,0.014,1.18,0.413,1.514,1.006l-0.032-0.035c-0.225,0.107-0.371,0.296-0.51,0.492
	l0.02-0.021c-0.2,0.132-0.364,0.3-0.503,0.494l0.017-0.017c-0.2,0.131-0.343,0.319-0.501,0.493c-0.42,0.818-1.22,1.21-1.917,1.722
	c-2.419,1.774-4.863,3.519-7.231,5.36C277.342,265.792,276.146,266.515,274.794,266.996z"/>
<path fill-rule="evenodd" clip-rule="evenodd" fill="#F4B827" d="M244.339,283.682c0.839,0.547,1.59,0.904,2.754,0.623
	c1.32-0.318,2.78-0.06,4.18-0.052c-2.185,2.702-5.292,4.268-7.922,6.42c-0.735,0.603-1.515,1.15-2.274,1.724
	c-0.661-0.049-1.181-0.396-0.852-1.05C241.53,288.758,242.423,285.942,244.339,283.682z"/>
<path fill-rule="evenodd" clip-rule="evenodd" fill="#A7AB4D" d="M252.045,173.728c0.183,1.212,0.723,1.503,1.975,1.131
	c2.131-0.633,4.05-1.74,6.131-2.468c0.67-0.235,1.296-0.579,2.036-0.518c-0.949,1.41-2.551,1.763-3.968,2.353
	c-2.161,0.9-4.388,1.643-6.586,2.453C251.723,175.689,251.277,174.624,252.045,173.728z"/>
<path fill-rule="evenodd" clip-rule="evenodd" fill="#FCAF24" d="M206.505,233.32c0.425,0.935,0.976,1.797,1,2.903
	c0.022,0.98,0.458,1.857,1.386,2.361c1.387,0.754,1.915,2.117,2.343,3.475c1.947,6.168,4.695,11.975,7.893,17.573
	c1.048,1.835,1.711,3.738,1.777,5.849c-1.405-0.069-2.365,0.723-3.321,1.621c-2.176,2.043-4.926,2.834-7.78,3.13
	c-1.516,0.157-3.041,0.272-4.402,0.889c-3.841,1.738-7.964,1.998-12.042,2.518c-2.909,0.37-5.859,0.692-8.622,1.626
	c-3.551,1.2-7.142,2.153-10.846,2.564c-1.976,0.219-3.653,1.052-5.312,1.932c-1.091,0.578-2.239,0.946-3.375,1.011
	c-1.861,0.105-3.618,0.55-5.335,1.147c-1.181,0.412-2.354,0.303-3.538,0.366c-2.055,0.11-4.15-0.349-6.157,0.436
	c2.32-4.847,5.233-9.348,8.733-13.383c3.715-4.285,7.134-8.781,10.527-13.308c0.773-1.031,1.667-1.919,2.699-2.69
	c1.939-1.449,3.552-3.192,4.703-5.346c2.46-4.603,5.748-8.606,9.128-12.542c0.645-0.75,1.454-1.23,2.32-1.647
	c0.925-1.474,2.35-1.25,3.634-0.866c1.549,0.462,2.938,0.318,4.409-0.263C199.803,231.303,203.188,231.907,206.505,233.32z"/>
<path fill-rule="evenodd" clip-rule="evenodd" fill="#FCAF27" d="M206.505,233.32c-1.456,0.179-2.878-0.135-4.24-0.522
	c-2.209-0.627-4.227-0.141-6.217,0.713c-1.365,0.586-2.613,0.816-4.075,0.067c-1.138-0.583-2.492-0.439-3.687,0.226
	c0.214-1.397,1.132-2.434,1.858-3.559c2.587-4.011,5.608-7.694,8.671-11.343c0.065-0.055,0.13-0.11,0.195-0.166
	c0.082,0.024,0.164,0.048,0.246,0.072c0.132,0.363,0.16,0.925,0.413,1.057c1.636,0.853,2.06,2.405,2.662,3.964
	c0.554,1.435,1.264,2.9,2.734,3.731c-0.129,1.439,0.029,2.792,0.998,3.97C206.472,232.028,206.539,232.678,206.505,233.32z"/>
<path fill-rule="evenodd" clip-rule="evenodd" fill="#E0842A" d="M193.063,200.201c1.012-0.641,2.146-0.505,3.248-0.469
	c0.998,0.033,1.896-0.074,2.512-0.973c0.506,0.532,0.867,1.142,1.01,1.871c0.271,3.202,0.087,6.413,0.178,9.619
	c0.064,2.959,0.268,5.938-1.204,8.685c0,0,0.008-0.032,0.008-0.033c-0.667-0.092-1.395,0.089-1.967-0.434
	c1.598-0.448,1.852-0.903,1.205-2.478c-0.664-1.615-1.556-3.148-2.097-4.799C194.776,207.589,193.777,203.93,193.063,200.201z"/>
<path fill-rule="evenodd" clip-rule="evenodd" fill="#FCAC1F" d="M207.468,163.239c0.16,0.16,0.319,0.32,0.479,0.48
	c-0.128,1.342,0.664,2.042,1.758,2.551c3.097,1.442,6.17,2.944,9.736,2.763c0.452-0.023,0.93,0.197,1.375,0.362
	c5.015,1.873,10.251,2.961,15.498,3.744c3.126,0.467,5.808,1.521,8.355,3.204c0.322,0.213,0.58,0.523,0.897,0.816
	c-0.385,0.152,0.02-0.016-0.142,0.26c-0.034,0.059-0.094,0.139-0.147,0.144c-0.396,0.035-0.793,0.073-1.189,0.073
	c-14.144,0.011-28.288,0.017-42.431,0.024c-0.502,0.383-0.969,0.389-1.385-0.132c0.091-0.773,0.605-1.459,0.463-2.279
	c1.878-2.643,3.813-5.248,5.608-7.946C207.131,166.118,207.553,164.722,207.468,163.239z"/>
<path fill-rule="evenodd" clip-rule="evenodd" fill="#A1BB78" d="M200.271,177.528c0.462,0.044,0.924,0.088,1.385,0.132
	c0.852,0.644,1.845,0.384,2.776,0.388c9.011,0.036,18.022,0.042,27.033,0.056c0,0.163,0,0.325,0,0.487
	c0.437,0.614,1.643,0.736,1.403,1.719c-0.211,0.864-1.229,0.855-1.941,1.153c-8.284,3.456-17.198,4.326-25.844,6.296
	c-1.072,0.244-2.243,0.28-2.893,1.397c-1.936,1.047-1.706,2.989-1.911,4.725c-0.154,1.301,0.264,2.672-0.494,3.898
	c-0.15,0.171-0.307,0.186-0.471,0.02c-0.48-1.538-0.507-3.045-0.182-4.661c0.59-2.93,1.298-5.862,1.136-8.9
	c-0.059-1.104-0.125-2.192-0.332-3.291C199.725,179.82,199.436,178.594,200.271,177.528z"/>
<path fill-rule="evenodd" clip-rule="evenodd" fill="#9BAC58" d="M301.097,155.985c0.154,0.175,0.308,0.351,0.462,0.526
	C301.405,156.335,301.251,156.16,301.097,155.985z"/>
<path fill-rule="evenodd" clip-rule="evenodd" fill="#88B464" d="M289.997,301.36c0.021-1.285,0.669-2.253,1.565-3.096
	c3.6-3.385,6.57-7.257,9.229-11.421c1.004-1.573,2.592-2.778,3.932-4.133c1.005-1.017,2.005-2.003,2.641-3.341
	c0.436-0.918,1.118-1.752,2.283-1.891c-0.443,1.469-1.635,2.44-2.451,3.661c-0.345,0.516-0.829,0.938-0.851,1.617
	c-2.685,2.977-5.193,6.086-7.21,9.565c-2.097,2.384-4.061,4.87-5.906,7.454C292.453,300.864,291.456,301.612,289.997,301.36z"/>
<path fill-rule="evenodd" clip-rule="evenodd" fill="#46C692" d="M310.026,372.064c-0.907-5.154-4.071-7.763-9.269-7.773
	c-3.997-0.008-7.993-0.001-11.99-0.001c-4.556,0-9.112-0.016-13.669,0.009c-1.697,0.009-1.725,0.052-1.751,1.754
	c-0.03,1.997-0.008,3.996-0.008,5.994c0,6.555-0.01,13.109,0.007,19.664c0.004,1.877,0.039,1.891,1.821,1.927
	c1.199,0.023,2.399-0.032,3.597,0.014c1.049,0.04,1.656-0.212,1.61-1.45c-0.073-1.996-0.03-3.996-0.014-5.994
	c0.017-2.099,0.027-2.122,2.094-2.126c6.395-0.013,12.79-0.028,19.185,0.004c3.203,0.017,5.472-1.461,7.053-4.15
	C310.135,377.482,310.511,374.815,310.026,372.064z M302.402,376.933c-0.403,0.443-1.046,0.315-1.6,0.315
	c-6.232,0.004-12.464,0.015-18.696-0.005c-1.691-0.006-1.758-0.052-1.737-1.751c0.063-5.336-0.747-4.262,4.15-4.369
	c2.316-0.05,4.635-0.009,6.951-0.008c3.116,0.001,6.232,0.023,9.349-0.012c1.168-0.013,2.011,0.251,2.291,1.556
	C303.44,374.197,303.544,375.679,302.402,376.933z"/>
<path fill-rule="evenodd" clip-rule="evenodd" fill="#81A761" d="M336.095,242.898c0.024-0.397,0.118-0.754,0.538-0.919
	C336.611,242.377,336.475,242.709,336.095,242.898z"/>
<path fill-rule="evenodd" clip-rule="evenodd" fill="#81A761" d="M331.297,249.144c0.022-0.399,0.114-0.758,0.537-0.925
	C331.814,248.62,331.677,248.952,331.297,249.144z"/>
<path fill-rule="evenodd" clip-rule="evenodd" fill="#81A761" d="M329.851,251.049c0.029-0.393,0.124-0.748,0.54-0.912
	C330.364,250.532,330.23,250.863,329.851,251.049z"/>
<path fill-rule="evenodd" clip-rule="evenodd" fill="#81A761" d="M334.647,244.801c0.033-0.39,0.13-0.742,0.541-0.906
	C335.159,244.287,335.028,244.619,334.647,244.801z"/>
<path fill-rule="evenodd" clip-rule="evenodd" fill="#81A761" d="M328.41,252.95c0.031-0.388,0.13-0.734,0.538-0.895
	C328.919,252.443,328.788,252.771,328.41,252.95z"/>
<path fill-rule="evenodd" clip-rule="evenodd" fill="#81A761" d="M329.392,251.575c0.147-0.167,0.296-0.334,0.443-0.502
	C329.687,251.241,329.539,251.408,329.392,251.575z"/>
<path fill-rule="evenodd" clip-rule="evenodd" fill="#81A761" d="M334.188,245.33c0.146-0.166,0.292-0.332,0.438-0.497
	C334.48,244.998,334.335,245.164,334.188,245.33z"/>
<path fill-rule="evenodd" clip-rule="evenodd" fill="#81A761" d="M330.835,249.664c0.151-0.169,0.304-0.338,0.454-0.508
	C331.138,249.326,330.986,249.495,330.835,249.664z"/>
<path fill-rule="evenodd" clip-rule="evenodd" fill="#81A761" d="M335.164,243.918c0.16-0.171,0.32-0.341,0.479-0.512
	C335.484,243.577,335.324,243.747,335.164,243.918z"/>
<path fill-rule="evenodd" clip-rule="evenodd" fill="#81A761" d="M333.266,246.41c0.041-0.291,0.199-0.49,0.475-0.596
	C333.582,246.013,333.424,246.211,333.266,246.41z"/>
<path fill-rule="evenodd" clip-rule="evenodd" fill="#81A761" d="M331.809,248.241c0.162-0.17,0.324-0.339,0.487-0.509
	C332.222,247.986,332.069,248.165,331.809,248.241z"/>
<path fill-rule="evenodd" clip-rule="evenodd" fill="#81A761" d="M332.744,247.236c0.143-0.154,0.285-0.308,0.427-0.461
	C333.028,246.929,332.887,247.083,332.744,247.236z"/>
<path fill-rule="evenodd" clip-rule="evenodd" fill="#81A761" d="M335.633,243.418c0.15-0.168,0.301-0.336,0.451-0.503
	C335.933,243.083,335.783,243.25,335.633,243.418z"/>
<path fill-rule="evenodd" clip-rule="evenodd" fill="#81A761" d="M330.366,250.16c0.161-0.17,0.322-0.341,0.483-0.511
	C330.688,249.819,330.527,249.989,330.366,250.16z"/>
<path fill-rule="evenodd" clip-rule="evenodd" fill="#81A761" d="M336.611,242.012c0.16-0.174,0.321-0.349,0.482-0.522
	c-0.005,0.17-0.011,0.341-0.016,0.512C336.923,242.01,336.767,242.013,336.611,242.012z"/>
<path fill-rule="evenodd" clip-rule="evenodd" fill="#81A761" d="M328.925,252.078c0.158-0.171,0.317-0.343,0.476-0.514
	C329.242,251.735,329.083,251.907,328.925,252.078z"/>
<path fill-rule="evenodd" clip-rule="evenodd" fill="#81A761" d="M332.278,247.75c0.154-0.17,0.31-0.341,0.464-0.511
	C332.587,247.409,332.433,247.58,332.278,247.75z"/>
<path fill-rule="evenodd" clip-rule="evenodd" fill="#81A761" d="M333.722,245.834c0.157-0.17,0.315-0.34,0.473-0.511
	C334.037,245.493,333.879,245.664,333.722,245.834z"/>
<path fill-rule="evenodd" clip-rule="evenodd" fill="#E4A229" d="M350.026,287.077c0.16-0.159,0.32-0.317,0.48-0.477
	C350.347,286.76,350.187,286.918,350.026,287.077z"/>
<path fill-rule="evenodd" clip-rule="evenodd" fill="#81A761" d="M337.082,241.503c0.001-0.542-0.119-1.127,0.509-1.449
	C337.543,240.579,337.621,241.149,337.082,241.503z"/>
<path fill-rule="evenodd" clip-rule="evenodd" fill="#A6C57D" d="M199.233,200.215c-0.49-0.386-0.404-0.934-0.41-1.455
	c0.125-0.026,0.251-0.037,0.379-0.03c0.544-0.415,1.187-0.523,1.82-0.411c3.68,0.653,7.045-0.552,10.494-1.563
	c6.783-1.986,13.643-3.686,20.727-4.216c0.851-0.064,1.77-0.197,2.534,0.417c0,0,0.131,0.119,0.131,0.12
	c-0.682,1.576-2.186,2.228-3.511,3.045c-4.114,2.539-8.258,5.026-12.092,7.99c-1.674,1.294-2.917,3.193-5.151,3.712
	c-3.654-1.387-7.24-0.869-10.889,0.171c-3.032,0.864-3.379,0.408-3.511-2.72C199.685,203.589,200.358,201.798,199.233,200.215z"/>
<path fill-rule="evenodd" clip-rule="evenodd" fill="#89C785" d="M234.778,192.957c-6.439-0.217-12.504,1.768-18.674,3.152
	c-3.711,0.833-7.283,2.177-11.022,2.907c-1.118,0.218-2.209,0.372-3.283-0.005c-0.859-0.301-1.729-0.212-2.596-0.282
	c0.037-0.31,0.074-0.62,0.111-0.929c0.157-0.004,0.314-0.01,0.471-0.02c4.075,0.119,8.123,0.19,11.911-1.779
	c1.107-0.576,2.413-0.795,3.647-1.099c4.621-1.137,9.364-1.662,13.997-2.77c1.436-0.344,3.021-0.078,4.537-0.073
	C234.448,192.063,234.736,192.398,234.778,192.957z"/>
<path fill-rule="evenodd" clip-rule="evenodd" fill="#F1A81F" d="M300.122,248.248c0.182-0.431,0.55-0.516,0.963-0.515
	C300.868,248.098,300.519,248.217,300.122,248.248z"/>
<path fill-rule="evenodd" clip-rule="evenodd" fill="#F1A81F" d="M301.559,247.282c0.182-0.422,0.545-0.51,0.952-0.519
	C302.297,247.126,301.948,247.242,301.559,247.282z"/>
<path fill-rule="evenodd" clip-rule="evenodd" fill="#F1A81F" d="M299.151,249.188c0.169-0.165,0.339-0.33,0.508-0.495
	C299.49,248.858,299.321,249.023,299.151,249.188z"/>
<path fill-rule="evenodd" clip-rule="evenodd" fill="#F2AB1F" d="M288.599,256.873c0.17-0.164,0.34-0.328,0.51-0.492
	C289.032,256.643,288.853,256.796,288.599,256.873z"/>
<path fill-rule="evenodd" clip-rule="evenodd" fill="#F1A81F" d="M301.072,247.74c0.17-0.161,0.34-0.323,0.511-0.484
	C301.502,247.512,301.336,247.677,301.072,247.74z"/>
<path fill-rule="evenodd" clip-rule="evenodd" fill="#F2AB1F" d="M287.631,257.823c0.167-0.164,0.334-0.329,0.501-0.493
	C287.965,257.494,287.798,257.659,287.631,257.823z"/>
<path fill-rule="evenodd" clip-rule="evenodd" fill="#F2AB1F" d="M288.115,257.347c0.168-0.165,0.335-0.329,0.503-0.494
	C288.45,257.018,288.283,257.182,288.115,257.347z"/>
<path fill-rule="evenodd" clip-rule="evenodd" fill="#F1A81F" d="M299.639,248.714c0.17-0.165,0.339-0.33,0.508-0.494
	C299.978,248.384,299.809,248.549,299.639,248.714z"/>
<path fill-rule="evenodd" clip-rule="evenodd" fill="#A9CB7F" d="M198.808,218.934c0.388-2.881,0.542-5.776,0.549-8.681
	c2.197-2.772,5.509-2.772,8.545-3.286c1.986-0.336,4.102-0.451,5.882,0.958c-1.295,0.774-2.461,1.695-3.575,2.728
	c-2.172,2.016-4.881,3.263-7.36,4.84c-1.389,0.883-2.995,1.563-3.592,3.315C199.104,218.842,198.955,218.884,198.808,218.934z"/>
<path fill-rule="evenodd" clip-rule="evenodd" fill="#8ECC86" d="M213.783,207.925c-4.08-1.081-8.024-0.59-11.858,1.052
	c-0.877,0.376-1.714,0.848-2.569,1.276c-0.041-3.346-0.082-6.692-0.123-10.039c0.835,0.043,1.037,0.57,1.03,1.299
	c-0.013,1.516-0.026,3.031,0.008,4.546c0.042,1.813,0.24,1.966,1.94,1.566c1.313-0.309,2.63-0.612,3.921-0.996
	c2.366-0.704,4.67-0.488,6.963,0.302c0.482,0.166,0.837,0.44,1.06,0.894C214.042,207.894,213.917,207.928,213.783,207.925z"/>
<path fill-rule="evenodd" clip-rule="evenodd" fill="#84C081" d="M202.19,189.158c-0.229-0.568-0.688-1.113,0.337-1.484
	c1.511-0.546,3.104-0.587,4.651-0.871c5.672-1.041,11.367-2.007,16.929-3.511c2.862-0.773,5.535-2.228,8.385-2.839
	c0.179-1.062-1.575-0.73-1.027-1.86c1.655,0.149,3.35-0.296,4.971,0.33c0.484,0.187,1.215,0.154,1.146,0.948
	c-0.055,0.626-0.635,0.588-1.092,0.685c-5.761,1.212-11.129,3.782-16.901,4.942c-3.33,0.669-6.744,0.865-10.037,1.777
	C207.11,187.95,204.645,188.533,202.19,189.158z"/>
</svg>
